<?xml version="1.0" encoding="UTF-8"?>
<svg version="1.1" xmlns="http://www.w3.org/2000/svg" width="573" height="200">
<path d="M0 0 C4.74830593 5.15910085 6.87671068 10.45279989 7.06640625 17.44921875 C6.56091389 27.4518402 0.70003868 33.75668988 -6.234375 40.4921875 C-6.91300598 41.16420197 -7.59163696 41.83621643 -8.29083252 42.52859497 C-10.43681959 44.651375 -12.59279241 46.76362885 -14.75 48.875 C-16.91964809 51.00956851 -19.08711346 53.1462919 -21.25201416 55.28567505 C-22.59435403 56.61104686 -23.9397618 57.93332011 -25.28851318 59.25216675 C-26.19515717 60.14417282 -26.19515717 60.14417282 -27.12011719 61.05419922 C-27.92023224 61.83741043 -27.92023224 61.83741043 -28.73651123 62.63644409 C-30.11474372 63.99624715 -30.11474372 63.99624715 -31 66 C-31.66 66 -32.32 66 -33 66 C-33.20625 66.5775 -33.4125 67.155 -33.625 67.75 C-35.59238882 70.96936352 -37.64200477 72.32100239 -41 74 C-45.44676946 72.99748293 -48.09363362 71.40730033 -51.28955078 68.2121582 C-52.07701691 67.43407303 -52.86448303 66.65598785 -53.67581177 65.85432434 C-54.50724701 65.01165512 -55.33868225 64.1689859 -56.1953125 63.30078125 C-57.06517792 62.43237106 -57.93504333 61.56396088 -58.83126831 60.66923523 C-60.66660154 58.83224406 -62.49699263 56.99030374 -64.32275391 55.14379883 C-67.10968709 52.32797167 -69.91473125 49.5312056 -72.72265625 46.73632812 C-74.50632262 44.94642221 -76.28891097 43.15544126 -78.0703125 41.36328125 C-79.32353806 40.11445915 -79.32353806 40.11445915 -80.6020813 38.84040833 C-86.64760931 32.69671559 -91.4503487 27.21827018 -92.0234375 18.3203125 C-91.93689481 9.75258632 -88.87949633 4.17719235 -83 -2 C-77.1793048 -7.13301813 -70.64118574 -7.45714925 -63.1875 -7.3046875 C-55.36818842 -6.55725331 -51.22699031 -2.69545528 -46.34765625 3.1953125 C-45 5 -45 5 -44 7 C-43.01 7.33 -42.02 7.66 -41 8 C-40.7215625 6.9790625 -40.7215625 6.9790625 -40.4375 5.9375 C-37.48162837 -0.10275943 -32.30843221 -4.68261674 -26 -7 C-15.96080261 -9.17515943 -7.44473332 -7.21260355 0 0 Z M-29 5 C-32.52775314 9.05565919 -34.43120206 13.20615143 -34.125 18.625 C-33.29170379 23.15654413 -31.30386939 26.7851837 -28 30 C-23.57118628 32.7703249 -19.06524356 32.63120727 -14 32 C-10.25004174 30.71051621 -7.64230401 28.79217494 -5.125 25.6875 C-3.11048684 20.87505189 -2.4718043 16.87298471 -4.0625 11.875 C-5.86730748 7.70694686 -8.07728675 5.39721365 -12 3 C-17.8454374 1.25719366 -23.9042749 1.41862271 -29 5 Z " fill="#F0F2F5" transform="translate(154,67)"/>
<path d="M0 0 C2.8125 2.5625 2.8125 2.5625 5 5 C5.66 5.66 6.32 6.32 7 7 C9.30019843 13.05315375 9.53275413 18.29047741 7.0703125 24.25 C4.50305944 29.49694056 4.50305944 29.49694056 3 31 C3.3056172 34.89661929 3.86881312 37.73762625 5.625 41.25 C6.07875 42.1575 6.5325 43.065 7 44 C6.67 44.99 6.34 45.98 6 47 C2.37 47 -1.26 47 -5 47 C-5.33 45.68 -5.66 44.36 -6 43 C-6.66 43 -7.32 43 -8 43 C-8.28875 42.071875 -8.5775 41.14375 -8.875 40.1875 C-11.64267512 36.03598732 -13.81400888 35.92907615 -18.48046875 34.78125 C-22.24450766 33.61410615 -24.26765662 31.80424716 -27 29 C-27 28.34 -27 27.68 -27 27 C-27.66 27 -28.32 27 -29 27 C-31.03418399 21.02458453 -32.63912918 14.83366576 -30.0546875 8.7890625 C-27.03245553 3.67597823 -23.68218549 0.19208244 -18.1875 -2.25 C-11.24383171 -3.8838043 -6.27925251 -3.43581741 0 0 Z M-20 12 C-20.81637162 14.85155156 -20.76112644 17.14000975 -20 20 C-18.10350449 23.14658666 -18.10350449 23.14658666 -15 25 C-10.87151069 25.66350721 -8.80066382 25.43514338 -5.125 23.4375 C-2.33394692 20.23599794 -2 18.21894271 -2 14 C-3.24275673 11.0566288 -4.26334156 9.51566091 -6.875 7.6875 C-12.42463221 5.89203076 -16.50305959 7.18302249 -20 12 Z " fill="#616B73" transform="translate(213,79)"/>
<path d="M0 0 C3.20802233 -0.11698258 6.41549025 -0.18750607 9.625 -0.25 C10.98044922 -0.30027344 10.98044922 -0.30027344 12.36328125 -0.3515625 C18.10491534 -0.43538198 21.5003759 0.05395741 26 4 C28.95382419 8.43073628 28.67417771 12.79810609 28 18 C26.71332828 19.70294787 25.38903267 21.37946188 24 23 C24.64131547 26.68756395 26.26009327 29.50105864 28.125 32.6875 C30 36 30 36 30 39 C26.11145409 39.75942669 22.84866945 40.05245116 19 39 C15.8774762 35.35527938 13.91101322 31.38293817 12 27 C11.34 30.96 10.68 34.92 10 39 C6.7 39 3.4 39 0 39 C-0.99709514 35.01161942 -1.12925874 31.81258814 -1.1328125 27.71484375 C-1.13376923 27.01734512 -1.13472595 26.3198465 -1.13571167 25.60121155 C-1.13639036 24.13119415 -1.13455778 22.6611737 -1.13037109 21.19116211 C-1.12501031 18.94182618 -1.1303307 16.69268919 -1.13671875 14.44335938 C-1.13605807 13.01302039 -1.13477712 11.58268154 -1.1328125 10.15234375 C-1.13168457 8.85288818 -1.13055664 7.55343262 -1.12939453 6.21459961 C-1 3 -1 3 0 0 Z M11 10 C11 11.32 11 12.64 11 14 C14.58327753 15.00217064 14.58327753 15.00217064 18 14 C17.67 12.68 17.34 11.36 17 10 C15.02 10 13.04 10 11 10 Z " fill="#6D7680" transform="translate(416,76)"/>
<path d="M0 0 C3.3 0 6.6 0 10 0 C10.33 2.97 10.66 5.94 11 9 C12.11375 7.88625 12.11375 7.88625 13.25 6.75 C14.1575 5.8425 15.065 4.935 16 4 C16.86625 2.93265625 16.86625 2.93265625 17.75 1.84375 C20.82923672 -0.67951342 22.82826608 -0.40686936 26.75 -0.25 C27.92046875 -0.21390625 29.0909375 -0.1778125 30.296875 -0.140625 C31.63492187 -0.07101563 31.63492187 -0.07101563 33 0 C30.39371632 5.00406467 27.47361142 8.91641768 23.5859375 13.0078125 C21.66171525 15.42493897 20.56539981 16.93068674 20 20 C21.4925858 22.50584526 22.87633084 24.44237476 24.75 26.625 C25.68269862 27.76268733 26.61500391 28.90069725 27.546875 30.0390625 C28.35640625 31.01617187 29.1659375 31.99328125 30 33 C32 36 32 36 32 39 C27.87170771 39.54908321 24.1080562 39.77249874 20 39 C16.88763003 36.44506943 14.8324974 33.57466043 13 30 C13 29.34 13 28.68 13 28 C12.34 28 11.68 28 11 28 C10.93941406 28.71027344 10.87882812 29.42054687 10.81640625 30.15234375 C10.73261719 31.07144531 10.64882813 31.99054688 10.5625 32.9375 C10.44068359 34.31228516 10.44068359 34.31228516 10.31640625 35.71484375 C10 38 10 38 9 39 C7.1875 39.1328125 7.1875 39.1328125 5 39.125 C4.278125 39.12757812 3.55625 39.13015625 2.8125 39.1328125 C1 39 1 39 0 38 C-0.08861992 35.1883662 -0.11522355 32.40141745 -0.09765625 29.58984375 C-0.0962413 28.74780899 -0.09482635 27.90577423 -0.09336853 27.03822327 C-0.08775263 24.33794665 -0.07519748 21.63775172 -0.0625 18.9375 C-0.05748705 17.11132932 -0.05292379 15.28515734 -0.04882812 13.45898438 C-0.03777804 8.97262458 -0.02050279 4.48632616 0 0 Z " fill="#79848D" transform="translate(341,76)"/>
<path d="M0 0 C3.3 0 6.6 0 10 0 C10.02505615 0.78238037 10.0501123 1.56476074 10.07592773 2.37084961 C10.19149788 5.89324949 10.31439949 9.4153556 10.4375 12.9375 C10.47681641 14.16919922 10.51613281 15.40089844 10.55664062 16.66992188 C10.61948242 18.4246582 10.61948242 18.4246582 10.68359375 20.21484375 C10.72025146 21.29886475 10.75690918 22.38288574 10.79467773 23.49975586 C10.72364265 25.939263 10.72364265 25.939263 12 27 C14.67058851 27.14115161 17.32432238 27.04247107 20 27 C21.31361698 24.37276604 21.21253909 22.27389439 21.31640625 19.3359375 C21.35830078 18.21445313 21.40019531 17.09296875 21.44335938 15.9375 C21.48267578 14.761875 21.52199219 13.58625 21.5625 12.375 C21.60568359 11.19164063 21.64886719 10.00828125 21.69335938 8.7890625 C21.79967426 5.85949672 21.90170642 2.92984412 22 0 C25.3 0 28.6 0 32 0 C32.0744389 4.0384057 32.12873729 8.07654293 32.16479492 12.11547852 C32.17983432 13.48794517 32.20027133 14.86036414 32.22631836 16.23266602 C32.26291221 18.21088656 32.27816698 20.18946514 32.29296875 22.16796875 C32.3086792 23.35672607 32.32438965 24.5454834 32.34057617 25.77026367 C31.76811437 31.19900717 28.95665947 34.42624306 25 38 C20.26503433 40.36748284 14.10642777 39.70318022 9 39 C5.07938897 36.80721316 2.02190138 34.04380276 0 30 C-0.37193895 25.53057471 -0.46879829 21.04411073 -0.625 16.5625 C-0.6765625 15.30888672 -0.728125 14.05527344 -0.78125 12.76367188 C-0.82507813 11.56419922 -0.86890625 10.36472656 -0.9140625 9.12890625 C-0.9548291 8.02619385 -0.9955957 6.92348145 -1.03759766 5.78735352 C-1 3 -1 3 0 0 Z " fill="#78838C" transform="translate(232,76)"/>
<path d="M0 0 C0.875 2.125 0.875 2.125 1 4 C1.66 4 2.32 4 3 4 C3.33 4.66 3.66 5.32 4 6 C4.99 6.33 5.98 6.66 7 7 C7.28875 6.236875 7.5775 5.47375 7.875 4.6875 C9 2 9 2 11 -1 C13.8203125 -1.29296875 13.8203125 -1.29296875 17.125 -1.1875 C18.76855469 -1.14689453 18.76855469 -1.14689453 20.4453125 -1.10546875 C21.70988281 -1.05326172 21.70988281 -1.05326172 23 -1 C21.20952368 4.24211678 18.11797445 8.44788679 14.92578125 12.91601562 C13.52576551 14.90984213 13.52576551 14.90984213 12 18 C12.33026686 20.13307845 12.33026686 20.13307845 14 22 C14.72766162 23.12354419 15.44831421 24.2516417 16.1640625 25.3828125 C17.40313289 27.2733941 18.64811268 29.15981081 19.8984375 31.04296875 C23 35.78594257 23 35.78594257 23 38 C19.21951696 38.49221479 15.76342563 38.68609368 12 38 C9.06510532 35.71619117 7.02791188 33.10069803 5 30 C4.34 30.99 3.68 31.98 3 33 C2.34 33 1.68 33 1 33 C0.01 35.475 0.01 35.475 -1 38 C-4.63 38 -8.26 38 -12 38 C-10.91888359 32.59441793 -8.78869277 29.27943171 -5.70703125 24.90429688 C-3.8412408 22.07886152 -2.99592333 20.32287205 -3.0390625 16.90625 C-4.09642988 13.70835842 -5.44401759 11.59595267 -7.5 8.9375 C-10.07985263 5.59109279 -11.4584512 3.21956775 -12 -1 C-7.37301506 -2.10166308 -4.32207132 -2.11077902 0 0 Z " fill="#DAE3E8" transform="translate(469,77)"/>
<path d="M0 0 C1.97563563 1.59627418 2.19866397 2.80019787 2.56640625 5.265625 C1.90640625 5.265625 1.24640625 5.265625 0.56640625 5.265625 C0.29828125 5.905 0.03015625 6.544375 -0.24609375 7.203125 C-1.43359375 9.265625 -1.43359375 9.265625 -4.43359375 10.265625 C-5.01109375 9.935625 -5.58859375 9.605625 -6.18359375 9.265625 C-9.56420321 7.76313191 -11.91037504 8.36880569 -15.43359375 9.265625 C-18.26692766 11.64196957 -18.41245113 13.06829383 -18.80859375 16.765625 C-18.41495071 20.43962674 -18.2055469 21.86326561 -15.43359375 24.265625 C-10.94454196 25.63185815 -8.6416824 25.0374518 -4.43359375 23.265625 C-2.30859375 23.328125 -2.30859375 23.328125 -0.43359375 24.265625 C1.44140625 26.578125 1.44140625 26.578125 2.56640625 29.265625 C1.93030108 32.35527868 0.67892472 33.18484251 -1.87109375 35.015625 C-7.91823706 37.13742967 -13.83610189 37.2101675 -19.87109375 35.015625 C-22.4070385 33.28376029 -24.45964772 31.61917604 -26.43359375 29.265625 C-26.43359375 28.605625 -26.43359375 27.945625 -26.43359375 27.265625 C-27.09359375 27.265625 -27.75359375 27.265625 -28.43359375 27.265625 C-30.53057555 21.10574096 -32.21255062 14.91595208 -29.23046875 8.796875 C-22.19420428 -2.14842529 -11.92597555 -5.88130301 0 0 Z " fill="#C8D2DA" transform="translate(327.43359375,78.734375)"/>
<path d="M0 0 C4.74830593 5.15910085 6.87671068 10.45279989 7.06640625 17.44921875 C6.53143679 28.03512961 0.44232648 34.05629093 -7 41 C-7.66 40.34 -8.32 39.68 -9 39 C-8.319375 38.2575 -7.63875 37.515 -6.9375 36.75 C-4.7576886 34.26122464 -4.7576886 34.26122464 -5.125 31.8125 C-5.96774898 29.81266959 -5.96774898 29.81266959 -8 28 C-7.525625 27.319375 -7.05125 26.63875 -6.5625 25.9375 C-4.4273349 21.9233896 -3.48548017 18.45315705 -4.4375 13.9140625 C-5.94038327 9.3200216 -7.6258295 6.37726658 -12 4 C-17.97078605 2.45878372 -23.2701695 2.78848647 -29 5 C-30.40257876 7.38119246 -30.40257876 7.38119246 -31 10 C-32.625 11.8125 -32.625 11.8125 -34 13 C-34.33 11.68 -34.66 10.36 -35 9 C-34.01 8.67 -33.02 8.34 -32 8 C-32 6.02 -32 4.04 -32 2 C-32.680625 2.7425 -32.680625 2.7425 -33.375 3.5 C-35 5 -35 5 -37 5 C-37.66 6.65 -38.32 8.3 -39 10 C-41.64 9.67 -44.28 9.34 -47 9 C-47 8.34 -47 7.68 -47 7 C-47.99 7 -48.98 7 -50 7 C-50.33 6.01 -50.66 5.02 -51 4 C-51.66 3.67 -52.32 3.34 -53 3 C-53.5625 1.125 -53.5625 1.125 -54 -1 C-54.33 -1.99 -54.66 -2.98 -55 -4 C-51.84930578 -2.63310446 -49.99108226 -1.14342115 -47.8125 1.5 C-47.30332031 2.1084375 -46.79414062 2.716875 -46.26953125 3.34375 C-45 5 -45 5 -44 7 C-43.01 7.33 -42.02 7.66 -41 8 C-40.7215625 6.9790625 -40.7215625 6.9790625 -40.4375 5.9375 C-37.48162837 -0.10275943 -32.30843221 -4.68261674 -26 -7 C-15.96080261 -9.17515943 -7.44473332 -7.21260355 0 0 Z M-31 -1 C-31 -0.34 -31 0.32 -31 1 C-30.01 0.67 -29.02 0.34 -28 0 C-28.99 -0.33 -29.98 -0.66 -31 -1 Z " fill="#C6CDD3" transform="translate(154,67)"/>
<path d="M0 0 C1 1 1 1 1.11352539 4.69360352 C1.11336624 6.33871292 1.10766988 7.98382731 1.09765625 9.62890625 C1.0962413 10.49313705 1.09482635 11.35736786 1.09336853 12.24778748 C1.08775239 15.01939292 1.07519719 17.7909188 1.0625 20.5625 C1.05748708 22.4368478 1.05292381 24.31119685 1.04882812 26.18554688 C1.03777772 30.79039544 1.0205023 35.39518421 1 40 C-5.5 41.25 -5.5 41.25 -10 39 C-10 26.79 -10 14.58 -10 2 C-4.13793103 -0.34482759 -4.13793103 -0.34482759 0 0 Z " fill="#BCC8D0" transform="translate(285,75)"/>
<path d="M0 0 C4.49671604 2.56718595 7.18156786 5.00122836 8.74609375 10.0859375 C9.42559695 14.79085206 9.24946601 18.7485648 7.05859375 23.0234375 C4.69968853 26.14739306 3.48207984 27.15194098 -0.25390625 28.0859375 C-0.91390625 27.4259375 -1.57390625 26.7659375 -2.25390625 26.0859375 C-2.01791013 23.09665336 -1.60823738 21.49478112 0.37109375 19.2109375 C2.09897283 17.00702475 2.09897283 17.00702475 1.49609375 13.5234375 C0.81917906 10.12730765 0.81917906 10.12730765 -0.25390625 7.0859375 C-4.76317108 6.18211971 -8.06223646 5.52658229 -12.31640625 7.5234375 C-14.65274398 10.61343257 -14.91393895 12.39327329 -14.6953125 16.1875 C-14.04204505 18.99712814 -12.44204137 20.30807772 -10.25390625 22.0859375 C-10.25390625 22.7459375 -10.25390625 23.4059375 -10.25390625 24.0859375 C-9.50367188 23.98925781 -8.7534375 23.89257812 -7.98046875 23.79296875 C-5.25390625 24.0859375 -5.25390625 24.0859375 -3.33984375 26.09765625 C-2.49292969 27.42216797 -2.49292969 27.42216797 -1.62890625 28.7734375 C-1.05914062 29.64355469 -0.489375 30.51367188 0.09765625 31.41015625 C0.64164063 32.29316406 1.185625 33.17617187 1.74609375 34.0859375 C2.31070313 34.97925781 2.8753125 35.87257812 3.45703125 36.79296875 C4.74609375 39.0859375 4.74609375 39.0859375 4.74609375 41.0859375 C0.29730571 39.60300815 -0.92991295 35.79002426 -3.02929688 31.83398438 C-4.8435508 28.65102022 -5.8986014 27.2303082 -9.33984375 25.83203125 C-10.30148438 25.58582031 -11.263125 25.33960937 -12.25390625 25.0859375 C-16.03277868 21.72693978 -18.11945353 19.867436 -18.50390625 14.7734375 C-18.17946971 9.98799849 -16.77447324 7.71913909 -13.56640625 4.2734375 C-10.17195229 2.53033952 -6.9483501 2.54133821 -3.25390625 3.0859375 C0.38817311 4.70463944 2.91257518 6.51540133 4.74609375 10.0859375 C5.26665757 15.55185765 5.09853084 18.57304142 1.74609375 23.0859375 C1.08609375 24.0759375 0.42609375 25.0659375 -0.25390625 26.0859375 C3.94579891 22.10160183 5.57758381 20.1417588 6.05859375 14.2734375 C5.9941214 9.89737646 4.67015011 7.40513661 1.74609375 4.0859375 C-2.07321478 1.57610618 -5.73132631 1.9248821 -10.1015625 2.54296875 C-13.97813056 3.52090516 -16.33420841 5.58155203 -18.390625 8.9453125 C-19.90419959 12.69842957 -19.18665517 16.23057528 -18.25390625 20.0859375 C-16.16692943 23.84249578 -14.05967737 25.2671213 -10.25390625 26.9609375 C-5.66856526 29.03118474 -4.32946513 31.58889327 -2.25390625 36.0859375 C-2.91390625 36.7459375 -3.57390625 37.4059375 -4.25390625 38.0859375 C-4.74890625 37.0134375 -5.24390625 35.9409375 -5.75390625 34.8359375 C-7.94009407 30.95545412 -10.36810913 29.72566449 -14.35546875 27.9765625 C-17.77138263 26.374035 -19.6201459 24.11202568 -21.56640625 20.9609375 C-22.74126596 16.04788782 -22.68668291 10.74127648 -20.2421875 6.2109375 C-14.95039743 -0.46640013 -8.1080625 -3.28819173 0 0 Z " fill="#D9E2E8" transform="translate(208.25390625,80.9140625)"/>
<path d="M0 0 C0.66 0.33 1.32 0.66 2 1 C1.30132812 2.09699219 0.60265625 3.19398437 -0.1171875 4.32421875 C-1.0366744 5.77850925 -1.95593325 7.23294395 -2.875 8.6875 C-3.33519531 9.40873047 -3.79539062 10.12996094 -4.26953125 10.87304688 C-7.82473609 16.14631843 -7.82473609 16.14631843 -10 22 C-8.72084235 24.77850099 -8.72084235 24.77850099 -6.625 27.3125 C-5.95726562 28.19550781 -5.28953125 29.07851562 -4.6015625 29.98828125 C-4.07304687 30.65214844 -3.54453125 31.31601563 -3 32 C-3.87515206 28.85856709 -3.87515206 28.85856709 -6.125 26.125 C-8 23 -8 23 -7.75 20.125 C-7.37875 19.073125 -7.37875 19.073125 -7 18 C-1.55695447 22.94822321 4.69469014 29.5631688 6 37 C2.21951696 37.49221479 -1.23657437 37.68609368 -5 37 C-7.93489468 34.71619117 -9.97208812 32.10069803 -12 29 C-12.66 29.99 -13.32 30.98 -14 32 C-14.66 32 -15.32 32 -16 32 C-16.99 34.475 -16.99 34.475 -18 37 C-19.65 37 -21.3 37 -23 37 C-16.47655072 24.01267632 -8.06634678 12.06017214 0 0 Z " fill="#79838B" transform="translate(486,78)"/>
<path d="M0 0 C2.8125 2.5625 2.8125 2.5625 5 5 C5.66 5.66 6.32 6.32 7 7 C9.30135723 13.05620324 9.46606371 18.22155397 7.140625 24.21484375 C5.40598727 27.90428476 4.48340493 29.67773005 1 32 C0.74984127 35.58357241 0.74984127 35.58357241 1 39 C-3 34.375 -3 34.375 -3 31 C-2.236875 30.4225 -1.47375 29.845 -0.6875 29.25 C3.046707 26.12368716 4.60163569 22.82129247 5.28515625 17.98046875 C5.49420241 13.22694074 4.59932055 9.9437967 2 6 C-3.62750181 0.92152276 -7.33681994 0.65294653 -14.7890625 0.71875 C-18.90499478 1.07926962 -21.0435088 2.1213112 -24 5 C-27.88712713 10.45134455 -27.78365102 15.51066517 -27 22 C-24.70370541 26.94586526 -21.68676135 29.30760518 -17 32 C-16.01 32.33 -15.02 32.66 -14 33 C-14 33.66 -14 34.32 -14 35 C-20.12352138 34.63258872 -22.78651436 33.21348564 -27 29 C-27 28.34 -27 27.68 -27 27 C-27.66 27 -28.32 27 -29 27 C-31.03418399 21.02458453 -32.63912918 14.83366576 -30.0546875 8.7890625 C-27.03245553 3.67597823 -23.68218549 0.19208244 -18.1875 -2.25 C-11.24383171 -3.8838043 -6.27925251 -3.43581741 0 0 Z " fill="#BBC6D0" transform="translate(213,79)"/>
<path d="M0 0 C0.66 0 1.32 0 2 0 C2 12.21 2 24.42 2 37 C3.98 37 5.96 37 8 37 C8 32.05 8 27.1 8 22 C9.65 22 11.3 22 13 22 C14.17176518 24.12232979 15.33754785 26.24757791 16.5 28.375 C16.83386719 28.97828125 17.16773438 29.5815625 17.51171875 30.203125 C20 34.7734375 20 34.7734375 20 37 C22.97 36.505 22.97 36.505 26 36 C24.35 32.7 22.7 29.4 21 26 C21.99 25.67 22.98 25.34 24 25 C25.0076952 26.7664657 26.00591714 28.53833823 27 30.3125 C27.556875 31.29863281 28.11375 32.28476563 28.6875 33.30078125 C30 36 30 36 30 39 C26.11145409 39.75942669 22.84866945 40.05245116 19 39 C15.8774762 35.35527938 13.91101322 31.38293817 12 27 C11.34 30.96 10.68 34.92 10 39 C6.7 39 3.4 39 0 39 C-0.99709514 35.01161942 -1.12925874 31.81258814 -1.1328125 27.71484375 C-1.13376923 27.01734512 -1.13472595 26.3198465 -1.13571167 25.60121155 C-1.13639036 24.13119415 -1.13455778 22.6611737 -1.13037109 21.19116211 C-1.12501031 18.94182618 -1.1303307 16.69268919 -1.13671875 14.44335938 C-1.13605807 13.01302039 -1.13477712 11.58268154 -1.1328125 10.15234375 C-1.13168457 8.85288818 -1.13055664 7.55343262 -1.12939453 6.21459961 C-1 3 -1 3 0 0 Z " fill="#C2CDD6" transform="translate(416,76)"/>
<path d="M0 0 C2.8125 1.375 2.8125 1.375 3.6875 3.5 C3.749375 4.428125 3.749375 4.428125 3.8125 5.375 C4.4725 5.375 5.1325 5.375 5.8125 5.375 C6.1425 6.035 6.4725 6.695 6.8125 7.375 C7.8025 7.705 8.7925 8.035 9.8125 8.375 C10.10125 7.611875 10.39 6.84875 10.6875 6.0625 C11.8125 3.375 11.8125 3.375 13.8125 0.375 C16.4375 0.1875 16.4375 0.1875 18.8125 0.375 C14.80310284 7.91767081 10.25516467 15.07638741 5.625 22.25 C4.89363315 23.38786207 4.16251184 24.525882 3.43164062 25.6640625 C-1.66741071 33.59486607 -1.66741071 33.59486607 -4.1875 37.375 C-4.8475 37.045 -5.5075 36.715 -6.1875 36.375 C-5.87409668 35.91649658 -5.56069336 35.45799316 -5.23779297 34.9855957 C-3.82675482 32.89853387 -2.44468282 30.79377063 -1.0625 28.6875 C-0.32193359 27.6056543 -0.32193359 27.6056543 0.43359375 26.50195312 C3.21216381 22.4756258 3.21216381 22.4756258 3.40625 17.8125 C2.8803125 17.008125 2.354375 16.20375 1.8125 15.375 C1.47331543 14.81643311 1.13413086 14.25786621 0.78466797 13.68237305 C-0.37712571 11.78241352 -1.58695261 9.92188519 -2.8125 8.0625 C-3.23273438 7.41732422 -3.65296875 6.77214844 -4.0859375 6.10742188 C-5.11588241 4.52739276 -6.15115628 2.95083953 -7.1875 1.375 C-4.21785043 -0.33850712 -3.52543856 -0.69126246 0 0 Z " fill="#6F787E" transform="translate(466.1875,75.625)"/>
<path d="M0 0 C-0.99 0.495 -0.99 0.495 -2 1 C-2.33 1.66 -2.66 2.32 -3 3 C-3.61875 2.360625 -4.2375 1.72125 -4.875 1.0625 C-7.73120595 -1.70969989 -9.36657189 -2.18701508 -13.25 -2.3125 C-17.92810125 -2.23741009 -20.46214212 -1.20875482 -24 2 C-26.71477377 5.41672462 -27.90305232 8.21056889 -28.4375 12.5625 C-27.78019761 17.72701881 -26.3122195 20.81580191 -22.4375 24.3125 C-18.25805952 27.2059588 -14.98383553 27.25608641 -10 27 C-7.64470719 26.58268982 -7.64470719 26.58268982 -6 26 C-6 25.34 -6 24.68 -6 24 C-6.99 24.66 -7.98 25.32 -9 26 C-12.94416446 26.79494788 -16.53996554 26.84687498 -20.07421875 24.796875 C-24.52816829 21.09925651 -26.69158706 18.05608629 -27.5625 12.25 C-27.4813736 7.44551453 -24.91766079 4.92165568 -21.7265625 1.56640625 C-18.98268433 -0.92294929 -17.18080668 -1.15779305 -13.5625 -1.1875 C-12.78003906 -1.20167969 -11.99757813 -1.21585937 -11.19140625 -1.23046875 C-9 -1 -9 -1 -6 1 C-6 1.66 -6 2.32 -6 3 C-6.99 2.67 -7.98 2.34 -9 2 C-14.20232207 1.60737192 -17.63142492 2.05375169 -22 5 C-24.35349371 8.58140347 -24.27802449 11.95685306 -23.59375 16.0625 C-22.53770397 19.50854493 -20.93745832 21.00002838 -18 23 C-13.62112537 23.76077418 -9.28169599 23.070424 -5 22 C-4.34 23.32 -3.68 24.64 -3 26 C-7.2141833 29.48759998 -11.18008368 29.44652557 -16.4140625 29.28515625 C-22.09555444 28.65864732 -25.30262815 25.10819095 -29 21 C-30.82307488 15.53077536 -31.1279857 9.78874693 -28.94140625 4.3828125 C-26.16414147 -0.20832982 -23.38423704 -3.22820545 -18.140625 -4.69921875 C-11.01662116 -5.70021929 -5.90051688 -3.89183028 0 0 Z " fill="#677178" transform="translate(330,83)"/>
<path d="M0 0 C-1.75 3.875 -1.75 3.875 -4 5 C-5.32860925 5.35169068 -6.66158328 5.68770276 -8 6 C-8 5.34 -8 4.68 -8 4 C-8.66 4 -9.32 4 -10 4 C-9.67 5.32 -9.34 6.64 -9 8 C-9.99 8.33 -10.98 8.66 -12 9 C-12.33 9.66 -12.66 10.32 -13 11 C-13.66 11 -14.32 11 -15 11 C-15.268125 11.763125 -15.53625 12.52625 -15.8125 13.3125 C-16.94424112 15.87380884 -17.91223401 17.19692938 -20 19 C-20.33 17.68 -20.66 16.36 -21 15 C-20.01 14.67 -19.02 14.34 -18 14 C-18 12.02 -18 10.04 -18 8 C-18.680625 8.7425 -18.680625 8.7425 -19.375 9.5 C-21 11 -21 11 -23 11 C-23.66 12.65 -24.32 14.3 -25 16 C-27.64 15.67 -30.28 15.34 -33 15 C-33 14.34 -33 13.68 -33 13 C-33.99 13 -34.98 13 -36 13 C-36.33 12.01 -36.66 11.02 -37 10 C-37.66 9.67 -38.32 9.34 -39 9 C-39.5625 7.125 -39.5625 7.125 -40 5 C-40.33 4.01 -40.66 3.02 -41 2 C-37.84930578 3.36689554 -35.99108226 4.85657885 -33.8125 7.5 C-33.30332031 8.1084375 -32.79414062 8.716875 -32.26953125 9.34375 C-31 11 -31 11 -30 13 C-29.01 13.33 -28.02 13.66 -27 14 C-26.7215625 12.9790625 -26.7215625 12.9790625 -26.4375 11.9375 C-23.90975236 6.77210265 -19.85072913 3.2472305 -15.125 0.0625 C-10.03419823 -1.6683726 -5.09965097 -1.69988366 0 0 Z M-17 5 C-17 5.66 -17 6.32 -17 7 C-16.01 6.67 -15.02 6.34 -14 6 C-14.99 5.67 -15.98 5.34 -17 5 Z " fill="#E3E9ED" transform="translate(140,61)"/>
<path d="M0 0 C1.65 0 3.3 0 5 0 C5.1455841 4.54132797 5.23417333 9.08205341 5.3125 13.625 C5.35439453 14.91019531 5.39628906 16.19539063 5.43945312 17.51953125 C5.57759155 28.18381746 5.57759155 28.18381746 2.60546875 31.8359375 C-2.05719658 35.70867602 -6.10163649 35.52017064 -12 35 C-14.97156014 33.76184994 -16.40187631 32.94429532 -18.11279297 30.24316406 C-19.20550151 27.48042161 -19.22688745 25.32742046 -19.1953125 22.359375 C-19.18886719 21.28945312 -19.18242187 20.21953125 -19.17578125 19.1171875 C-19.15902344 18.00601563 -19.14226562 16.89484375 -19.125 15.75 C-19.11597656 14.62335938 -19.10695312 13.49671875 -19.09765625 12.3359375 C-19.07410658 9.55707635 -19.0412168 6.7786461 -19 4 C-18.34 4 -17.68 4 -17 4 C-16.9906543 4.70608398 -16.98130859 5.41216797 -16.97167969 6.13964844 C-16.91794341 9.34380545 -16.83430243 12.54650757 -16.75 15.75 C-16.73582031 16.86117187 -16.72164062 17.97234375 -16.70703125 19.1171875 C-16.67480469 20.18710938 -16.64257812 21.25703125 -16.609375 22.359375 C-16.58842773 23.34389648 -16.56748047 24.32841797 -16.54589844 25.34277344 C-15.85922674 28.68523086 -14.63531452 29.89701656 -12 32 C-9.78614539 32.55254593 -9.78614539 32.55254593 -7.5 32.375 C-6.37078125 32.35566406 -6.37078125 32.35566406 -5.21875 32.3359375 C-2.75479966 31.9628746 -1.0920932 31.35152924 1 30 C1.81171228 27.44480079 1.81171228 27.44480079 2 25 C1.34 25.33 0.68 25.66 0 26 C0 17.42 0 8.84 0 0 Z " fill="#D7E2E8" transform="translate(255,76)"/>
<path d="M0 0 C0.33 0 0.66 0 1 0 C1.33 8.25 1.66 16.5 2 25 C2.33 17.74 2.66 10.48 3 3 C3.33 3 3.66 3 4 3 C4.11614929 7.0830942 4.18723457 11.16576377 4.25 15.25 C4.30027344 16.98830078 4.30027344 16.98830078 4.3515625 18.76171875 C4.36445313 19.87675781 4.37734375 20.99179688 4.390625 22.140625 C4.41157227 23.16704102 4.43251953 24.19345703 4.45410156 25.25097656 C3.8827286 28.70993333 2.68762541 29.82965814 0 32 C-2.27248238 33.13624119 -3.78302764 33.26446843 -6.3125 33.375 C-7.07175781 33.42398438 -7.83101562 33.47296875 -8.61328125 33.5234375 C-12.52711803 32.66508377 -13.73042061 31.30880785 -16 28 C-16.61066058 23.87851377 -16.47033425 19.84218314 -16.3125 15.6875 C-16.28994141 14.56537109 -16.26738281 13.44324219 -16.24414062 12.28710938 C-16.18533776 9.52337464 -16.10320401 6.76237446 -16 4 C-16.99 4 -17.98 4 -19 4 C-19 10.93 -19 17.86 -19 25 C-19.33 25 -19.66 25 -20 25 C-20 17.41 -20 9.82 -20 2 C-18.02 2 -16.04 2 -14 2 C-13.98018066 2.77714355 -13.96036133 3.55428711 -13.93994141 4.35498047 C-13.84492991 7.86200691 -13.73515441 11.36841794 -13.625 14.875 C-13.5940625 16.09832031 -13.563125 17.32164063 -13.53125 18.58203125 C-13.49257812 19.74863281 -13.45390625 20.91523437 -13.4140625 22.1171875 C-13.3826416 23.19597168 -13.3512207 24.27475586 -13.31884766 25.38623047 C-13.25323678 28.15761654 -13.25323678 28.15761654 -11 30 C-7.98173347 30.27240673 -5.03629378 30.08675125 -2 30 C-4.97 29.67 -7.94 29.34 -11 29 C-11 28.01 -11 27.02 -11 26 C-10.67 26.33 -10.34 26.66 -10 27 C-7.32941149 27.14115161 -4.67567762 27.04247107 -2 27 C-0.68638302 24.37276604 -0.78746091 22.27389439 -0.68359375 19.3359375 C-0.64169922 18.21445313 -0.59980469 17.09296875 -0.55664062 15.9375 C-0.51732422 14.761875 -0.47800781 13.58625 -0.4375 12.375 C-0.39431641 11.19164063 -0.35113281 10.00828125 -0.30664062 8.7890625 C-0.20032574 5.85949672 -0.09829358 2.92984412 0 0 Z " fill="#5B656E" transform="translate(254,76)"/>
<path d="M0 0 C16 0 16 0 22 4 C24.97339322 8.46008984 24.61928706 12.77046484 24 18 C22.3125 21.125 22.3125 21.125 20 23 C18.35 23.33 16.7 23.66 15 24 C16.65 27.63 18.3 31.26 20 35 C19.01 35 18.02 35 17 35 C16.13372601 33.40233897 15.28233535 31.79660056 14.4375 30.1875 C13.96183594 29.29417969 13.48617188 28.40085937 12.99609375 27.48046875 C12 25 12 25 13 22 C14.99145391 20.98308736 16.99187074 19.98357352 19 19 C21.535379 15.1969315 21.59712134 12.45975004 21 8 C18.92115465 4.71761261 16.85364203 4.54145681 13 3 C9.37 2.67 5.74 2.34 2 2 C2 12.89 2 23.78 2 35 C1.34 35 0.68 35 0 35 C0 23.45 0 11.9 0 0 Z " fill="#E0EAF1" transform="translate(420,76)"/>
<path d="M0 0 C2.61530876 0.36073224 3.79749727 0.79749727 5.6875 2.6875 C7.25600896 5.4510634 7.64343804 7.86225474 8 11 C8.33 11 8.66 11 9 11 C11.48002593 13.48002593 11.29694693 14.32832513 11.3125 17.75 C11.22865007 22.22629607 10.38706073 25.14397882 8 29 C7.608125 29.78375 7.21625 30.5675 6.8125 31.375 C6.544375 31.91125 6.27625 32.4475 6 33 C4.10786631 30.61426621 2.97608217 28.92824652 2 26 C2.33 25.01 2.66 24.02 3 23 C3.72346091 15.6206987 0.96103657 10.94155485 -3 5 C-2.01 3.35 -1.02 1.7 0 0 Z " fill="#F3F6F8" transform="translate(148,65)"/>
<path d="M0 0 C3.64207936 1.61870194 6.16648143 3.42946383 8 7 C8.50560529 12.30885559 8.50590623 15.7150035 5 20 C4.01 20.33 3.02 20.66 2 21 C2.61277612 18.03824877 3.25372522 16.61941217 5 14 C4.68372903 10.45776514 4.12451909 7.37355726 3 4 C-1.50926483 3.09618221 -4.80833021 2.44064479 -9.0625 4.4375 C-11.39883773 7.52749507 -11.6600327 9.30733579 -11.44140625 13.1015625 C-10.7881388 15.91119064 -9.18813512 17.22214022 -7 19 C-7 19.66 -7 20.32 -7 21 C-6.24976563 20.90332031 -5.49953125 20.80664062 -4.7265625 20.70703125 C-2 21 -2 21 -0.0859375 23.01171875 C0.76097656 24.33623047 0.76097656 24.33623047 1.625 25.6875 C2.19476563 26.55761719 2.76453125 27.42773438 3.3515625 28.32421875 C3.89554688 29.20722656 4.43953125 30.09023437 5 31 C5.56460938 31.89332031 6.12921875 32.78664062 6.7109375 33.70703125 C8 36 8 36 8 38 C3.55121196 36.51707065 2.3239933 32.70408676 0.22460938 28.74804688 C-1.58964455 25.56508272 -2.64469515 24.1443707 -6.0859375 22.74609375 C-7.04757813 22.49988281 -8.00921875 22.25367187 -9 22 C-12.77887243 18.64100228 -14.86554728 16.7814985 -15.25 11.6875 C-14.92556346 6.90206099 -13.52056699 4.63320159 -10.3125 1.1875 C-6.91804604 -0.55559798 -3.69444385 -0.54459929 0 0 Z " fill="#D1DCE6" transform="translate(205,84)"/>
<path d="M0 0 C1.98 0 3.96 0 6 0 C6.33 2.97 6.66 5.94 7 9 C8.11375 7.88625 8.11375 7.88625 9.25 6.75 C10.1575 5.8425 11.065 4.935 12 4 C12.5775 3.2884375 13.155 2.576875 13.75 1.84375 C16.82923672 -0.67951342 18.82826608 -0.40686936 22.75 -0.25 C23.92046875 -0.21390625 25.0909375 -0.1778125 26.296875 -0.140625 C27.18890625 -0.09421875 28.0809375 -0.0478125 29 0 C27.328125 3.84375 27.328125 3.84375 24.375 5.25 C23.59125 5.4975 22.8075 5.745 22 6 C22.66 4.68 23.32 3.36 24 2 C20.26549567 1.9855996 18.05372136 2.13159962 15.12597656 4.54443359 C13.16332365 6.67977075 11.38039238 8.87866035 9.625 11.1875 C9.00157715 11.9923584 8.3781543 12.7972168 7.73583984 13.62646484 C2.61592551 20.66200284 1.01121279 26.21391937 2 35 C1.34 35 0.68 35 0 35 C-0.76813995 22.53906302 -0.76813995 22.53906302 1.078125 18.83984375 C2.4375 17.3125 2.4375 17.3125 5 15 C5.33 14.01 5.66 13.02 6 12 C5.34 12 4.68 12 4 12 C4 8.7 4 5.4 4 2 C3.34 2 2.68 2 2 2 C2 6.62 2 11.24 2 16 C1.34 16.33 0.68 16.66 0 17 C0 11.39 0 5.78 0 0 Z " fill="#CBD7E1" transform="translate(345,76)"/>
<path d="M0 0 C1.65 0.33 3.3 0.66 5 1 C5.061875 1.61875 5.12375 2.2375 5.1875 2.875 C5.828919 5.27761141 5.828919 5.27761141 8.5625 6.25 C9.366875 6.4975 10.17125 6.745 11 7 C11 8.65 11 10.3 11 12 C10.195625 12.268125 9.39125 12.53625 8.5625 12.8125 C7.716875 13.204375 6.87125 13.59625 6 14 C5.67 14.99 5.34 15.98 5 17 C3.35 17 1.7 17 0 17 C-0.2475 16.360625 -0.495 15.72125 -0.75 15.0625 C-1.81562433 12.81258459 -1.81562433 12.81258459 -4.125 12.25 C-4.74375 12.1675 -5.3625 12.085 -6 12 C-6 10.02 -6 8.04 -6 6 C-5.38125 5.938125 -4.7625 5.87625 -4.125 5.8125 C-1.72238859 5.171081 -1.72238859 5.171081 -0.75 2.4375 C-0.5025 1.633125 -0.255 0.82875 0 0 Z " fill="#E9F1F5" transform="translate(133,75)"/>
<path d="M0 0 C0.66 0 1.32 0 2 0 C2 12.21 2 24.42 2 37 C3.98 37 5.96 37 8 37 C7.91878906 35.9378125 7.83757812 34.875625 7.75390625 33.78125 C7.15378116 22.62947497 7.15378116 22.62947497 9.3125 18.47265625 C11.10991733 16.51074314 13.02069258 14.77679141 15 13 C16.34350622 11.35822503 17.65671427 9.69115994 18.9375 8 C19.52402344 7.236875 20.11054688 6.47375 20.71484375 5.6875 C21.13894531 5.130625 21.56304687 4.57375 22 4 C22.99 4.33 23.98 4.66 25 5 C24.24074219 5.88042969 23.48148437 6.76085937 22.69921875 7.66796875 C21.69512011 8.84098118 20.69122458 10.01416748 19.6875 11.1875 C19.18798828 11.76564453 18.68847656 12.34378906 18.17382812 12.93945312 C13.20042468 18.76920418 10.58736336 22.87738694 10.375 30.75 C10.10591977 37.89408023 10.10591977 37.89408023 9 39 C7.1875 39.1328125 7.1875 39.1328125 5 39.125 C4.278125 39.12757812 3.55625 39.13015625 2.8125 39.1328125 C1 39 1 39 0 38 C-0.08861992 35.1883662 -0.11522355 32.40141745 -0.09765625 29.58984375 C-0.0962413 28.74780899 -0.09482635 27.90577423 -0.09336853 27.03822327 C-0.08775263 24.33794665 -0.07519748 21.63775172 -0.0625 18.9375 C-0.05748705 17.11132932 -0.05292379 15.28515734 -0.04882812 13.45898438 C-0.03777804 8.97262458 -0.02050279 4.48632616 0 0 Z " fill="#D8E3EB" transform="translate(341,76)"/>
<path d="M0 0 C2.34576488 1.11291913 3.97143135 2.33553342 6 4 C5.6875 5.9375 5.6875 5.9375 5 8 C4.01 8.33 3.02 8.66 2 9 C0 8 0 8 -2 7 C-4.32495277 6.61250787 -6.65851268 6.27017161 -9 6 C-7 4 -7 4 -3.5625 3.75 C0 4 0 4 3 6 C3 5.34 3 4.68 3 4 C-1.07123523 2.64292159 -4.74737998 2.3396102 -9 3 C-12.55276493 4.94127873 -14.76201421 7.64302131 -17 11 C-17.47128944 15.79144265 -17.51298393 18.0289947 -15.25 22.3125 C-11.86907974 26.63384524 -11.86907974 26.63384524 -6.8515625 28.2109375 C-3.25198712 28.26918306 -0.43953054 28.14651018 3 27 C3 27.66 3 28.32 3 29 C-0.71962851 31.47975234 -4.68420631 31.67486349 -9 31 C-14.29112204 28.25268663 -18.09375244 24.71874267 -20 19 C-20.65124829 13.46438951 -19.57125607 10.25264491 -16.4765625 5.80078125 C-11.92435617 0.24901639 -6.90212285 -1.27953793 0 0 Z " fill="#DCE6EB" transform="translate(321,80)"/>
<path d="M0 0 C4.50665768 2.13473258 7.1741532 4.91822129 10 9 C11.52395071 13.57185213 11.85658438 17.7968201 10.10546875 22.30078125 C9.12928457 24.24280136 8.11225117 26.13300697 7 28 C6.01 28 5.02 28 4 28 C4.66 27.030625 5.32 26.06125 6 25.0625 C8.47659047 20.70863633 8.71639821 16.90732773 8 12 C6.65128983 7.79519771 5.40332569 6.30652752 1.875 3.625 C-2.36102989 1.50698505 -6.36251341 1.06594793 -11 2 C-15.39499418 3.91750711 -17.59007299 6.27271014 -19.9375 10.4375 C-21.39680242 15.33045518 -21.6356482 18.32724158 -19.8125 23.125 C-17.14029121 27.36367602 -14.2351497 29.40617803 -9.75 31.5625 C-7 33 -7 33 -6 36 C-7.65 36 -9.3 36 -11 36 C-10.01 35.505 -10.01 35.505 -9 35 C-9 34.34 -9 33.68 -9 33 C-9.680625 32.95875 -10.36125 32.9175 -11.0625 32.875 C-15.75425166 31.47745695 -19.52903732 28.28924655 -22.1796875 24.1640625 C-24.08314056 19.14257203 -24.15118358 12.72097937 -22.0546875 7.765625 C-16.50400548 -0.40330326 -9.34184137 -1.0588989 0 0 Z " fill="#666F77" transform="translate(208,79)"/>
<path d="M0 0 C3.3 0 6.6 0 10 0 C10.33 9.24 10.66 18.48 11 28 C14.3 28.33 17.6 28.66 21 29 C20.67 29.66 20.34 30.32 20 31 C18.56344146 31.08131463 17.1255517 31.13933559 15.6875 31.1875 C14.48673828 31.23970703 14.48673828 31.23970703 13.26171875 31.29296875 C11 31 11 31 9.37695312 29.85546875 C7.41387298 27.21018345 7.6592226 25.2864559 7.70703125 22.01953125 C7.71669922 20.85615234 7.72636719 19.69277344 7.73632812 18.49414062 C7.76146484 17.27919922 7.78660156 16.06425781 7.8125 14.8125 C7.82603516 13.58595703 7.83957031 12.35941406 7.85351562 11.09570312 C7.88891259 8.06336336 7.9382924 5.03190004 8 2 C6.02 2 4.04 2 2 2 C2 10.91 2 19.82 2 29 C-0.577842 26.422158 -0.31024814 25.24939085 -0.44921875 21.66015625 C-0.49240234 20.59732422 -0.53558594 19.53449219 -0.58007812 18.43945312 C-0.61552734 17.32505859 -0.65097656 16.21066406 -0.6875 15.0625 C-0.73455078 13.95197266 -0.78160156 12.84144531 -0.83007812 11.69726562 C-1.13630981 3.40892942 -1.13630981 3.40892942 0 0 Z " fill="#D3DFE7" transform="translate(232,76)"/>
<path d="M0 0 C1.32 0.66 2.64 1.32 4 2 C3.195625 2.45375 2.39125 2.9075 1.5625 3.375 C-1.08856572 4.74725665 -1.08856572 4.74725665 -2 7 C-2.26240772 10.54250417 -2.4108745 13.13259827 -0.875 16.375 C1.72806588 18.63099043 3.58377417 18.86335097 7 19 C8.67745682 18.36096883 10.34561387 17.69658363 12 17 C14.125 17.0625 14.125 17.0625 16 18 C17.875 20.3125 17.875 20.3125 19 23 C18.03969728 26.36105951 16.98299429 27.01133714 14 29 C11.08203125 29.1953125 11.08203125 29.1953125 7.8125 29.125 C6.72582031 29.10695313 5.63914062 29.08890625 4.51953125 29.0703125 C3.27236328 29.03550781 3.27236328 29.03550781 2 29 C2 28.67 2 28.34 2 28 C2.60328125 27.87882812 3.2065625 27.75765625 3.828125 27.6328125 C4.62734375 27.46523437 5.4265625 27.29765625 6.25 27.125 C7.43335938 26.88136719 7.43335938 26.88136719 8.640625 26.6328125 C10.96831144 26.00849925 12.89031952 25.15161458 15 24 C14.67 23.01 14.34 22.02 14 21 C13.01 21.2475 13.01 21.2475 12 21.5 C8.26887382 22.12185436 4.75435247 22.68399134 1 22 C-2.1619193 19.52545446 -4.88175521 16.91385676 -6 13 C-5.91835694 7.85648714 -5.81443254 5.953482 -2.4375 2 C-1.633125 1.34 -0.82875 0.68 0 0 Z " fill="#D0DEE4" transform="translate(311,85)"/>
<path d="M0 0 C0.625 2.0625 0.625 2.0625 1 4 C2.32 3.67 3.64 3.34 5 3 C5 3.99 5 4.98 5 6 C4.34 6.66 3.68 7.32 3 8 C3.99 9.32 4.98 10.64 6 12 C6 10.35 6 8.7 6 7 C6.66 6.67 7.32 6.34 8 6 C9.66666667 11 11.33333333 16 13 21 C12 22 12 22 9.49609375 22.09765625 C8.48675781 22.08605469 7.47742188 22.07445313 6.4375 22.0625 C5.42558594 22.05347656 4.41367188 22.04445313 3.37109375 22.03515625 C2.19740234 22.01775391 2.19740234 22.01775391 1 22 C-1.125 17.375 -1.125 17.375 0 14 C1.98 15.32 3.96 16.64 6 18 C4.46357006 15.33819663 2.89176025 12.69908058 1.3125 10.0625 C0.65991211 8.93038086 0.65991211 8.93038086 -0.00585938 7.77539062 C-2.53374252 3.37088678 -2.53374252 3.37088678 -6.83203125 0.99609375 C-7.90517578 0.99802734 -7.90517578 0.99802734 -9 1 C-9 0.67 -9 0.34 -9 0 C-2.25 -1.125 -2.25 -1.125 0 0 Z " fill="#626E78" transform="translate(207,104)"/>
<path d="M0 0 C9.65081168 -0.60845748 9.65081168 -0.60845748 14.1875 1.4375 C16.50192659 4.70962035 16.52172406 6.9522037 16.46875 10.87890625 C15.89349726 13.48192489 15.08835141 14.37955751 13 16 C9.98509443 17.00496852 7.95818308 17.10335303 4.8125 17.0625 C3.46091797 17.04896484 3.46091797 17.04896484 2.08203125 17.03515625 C1.39496094 17.02355469 0.70789063 17.01195313 0 17 C0 16.34 0 15.68 0 15 C0.85464844 14.86722656 1.70929688 14.73445313 2.58984375 14.59765625 C3.69457031 14.42105469 4.79929687 14.24445313 5.9375 14.0625 C7.03964844 13.88847656 8.14179688 13.71445313 9.27734375 13.53515625 C11.90426929 13.28154864 11.90426929 13.28154864 13 12 C13.25003964 8.54178598 13.25003964 8.54178598 13 5 C10.60236815 2.60236815 9.66726502 2.65719414 6.375 2.375 C5.14910156 2.26285156 5.14910156 2.26285156 3.8984375 2.1484375 C3.27195312 2.09945312 2.64546875 2.05046875 2 2 C2 2.66 2 3.32 2 4 C3.918125 3.938125 3.918125 3.938125 5.875 3.875 C8.0546875 3.8046875 8.0546875 3.8046875 10 4 C12 6 12 6 12.3125 8.5 C12.1578125 9.7375 12.1578125 9.7375 12 11 C8.5647952 13.29013653 7.014669 13.17842973 3 13 C5.61941217 11.25372522 7.03824877 10.61277612 10 10 C9.67 9.01 9.34 8.02 9 7 C6.03 6.67 3.06 6.34 0 6 C0 4.02 0 2.04 0 0 Z " fill="#DAE3E9" transform="translate(424,80)"/>
<path d="M0 0 C3.37759744 1.12586581 3.66647035 1.59678426 5.4453125 4.4921875 C5.88230469 5.19730469 6.31929688 5.90242188 6.76953125 6.62890625 C7.21683594 7.37011719 7.66414063 8.11132812 8.125 8.875 C8.58003906 9.60847656 9.03507812 10.34195313 9.50390625 11.09765625 C11.32917159 14.07115973 12.89167681 16.67503042 14 20 C12.77760929 22.92230243 10.95377497 25.52244216 9.25 28.1875 C8.79367187 28.93708984 8.33734375 29.68667969 7.8671875 30.45898438 C7.42117188 31.16732422 6.97515625 31.87566406 6.515625 32.60546875 C6.10602539 33.25668701 5.69642578 33.90790527 5.27441406 34.57885742 C4.6435791 35.282323 4.6435791 35.282323 4 36 C3.01 36 2.02 36 1 36 C2.68486101 31.38923401 5.11654398 27.64510713 7.85546875 23.59765625 C9.3478968 20.21040488 9.05031202 18.52244382 8 15 C6.44540368 12.36148253 6.44540368 12.36148253 4.5 9.9375 C1.92014737 6.59109279 0.5415488 4.21956775 0 0 Z " fill="#C0CBD3" transform="translate(457,76)"/>
<path d="M0 0 C0.99 0.33 1.98 0.66 3 1 C3 13.21 3 25.42 3 38 C1.35 38 -0.3 38 -2 38 C-2 26.45 -2 14.9 -2 3 C-1.34 3 -0.68 3 0 3 C0 13.89 0 24.78 0 36 C0.66 36 1.32 36 2 36 C1.88171792 31.35505142 1.75746726 26.71031535 1.62768555 22.06567383 C1.58437695 20.48563985 1.54269894 18.90556031 1.50268555 17.32543945 C1.44488417 15.05405952 1.3812184 12.78290811 1.31640625 10.51171875 C1.29133751 9.45219246 1.29133751 9.45219246 1.26576233 8.3712616 C1.1740253 5.3335176 0.96792314 2.90376942 0 0 Z " fill="#6B747E" transform="translate(280,75)"/>
<path d="M0 0 C0.99 0 1.98 0 3 0 C4.9375 2.265625 4.9375 2.265625 7 5.25 C7.680625 6.22453125 8.36125 7.1990625 9.0625 8.203125 C9.701875 9.12609375 10.34125 10.0490625 11 11 C11.5775 11.71671875 12.155 12.4334375 12.75 13.171875 C14 15 14 15 14 18 C9.81541433 18.69045664 6.15944557 18.92713586 2 18 C-1.57107818 14.84528071 -4.08074369 11.36250006 -6 7 C-5.69921875 4.640625 -5.69921875 4.640625 -5 3 C-3.66094733 4.7873962 -2.32890934 6.58004953 -1 8.375 C-0.2575 9.37273437 0.485 10.37046875 1.25 11.3984375 C3 14 3 14 3 16 C5.31 16 7.62 16 10 16 C9.44570313 15.26394531 8.89140625 14.52789062 8.3203125 13.76953125 C7.59585937 12.79371094 6.87140625 11.81789063 6.125 10.8125 C5.40570313 9.84957031 4.68640625 8.88664062 3.9453125 7.89453125 C2.19403401 5.28871325 1.02540206 2.95207856 0 0 Z " fill="#BBC7CE" transform="translate(359,97)"/>
<path d="M0 0 C2.31 0 4.62 0 7 0 C5.16254836 5.45985629 1.83488 9.81226677 -1.45507812 14.47265625 C-4.88369913 19.30396656 -4.88369913 19.30396656 -6 25 C-4.83926389 27.52427739 -4.83926389 27.52427739 -3.0625 29.8125 C-2.21365234 30.99779297 -2.21365234 30.99779297 -1.34765625 32.20703125 C-0.90292969 32.79871094 -0.45820313 33.39039063 0 34 C-0.99 34 -1.98 34 -3 34 C-4.89453125 31.98828125 -4.89453125 31.98828125 -6.8125 29.3125 C-7.45832031 28.44238281 -8.10414063 27.57226562 -8.76953125 26.67578125 C-10 24 -10 24 -9.51953125 21.6875 C-7.40717861 17.95151384 -5.18341315 14.30530717 -2.875 10.6875 C-2.40707031 9.94693359 -1.93914062 9.20636719 -1.45703125 8.44335938 C-0.30835804 6.62658032 0.84532369 4.81296963 2 3 C1.34 3 0.68 3 0 3 C0 2.01 0 1.02 0 0 Z " fill="#CDD9E1" transform="translate(485,76)"/>
<path d="M0 0 C0.66 0.99 1.32 1.98 2 3 C1.34 3 0.68 3 0 3 C2.76114101 7.24790925 5.70437074 11.27587945 8.828125 15.265625 C10 17 10 17 10 19 C5.77202073 19.96891192 5.77202073 19.96891192 3 19 C-0.10641799 15.61265378 -2.56788536 11.89138342 -5 8 C-5.99 11.465 -5.99 11.465 -7 15 C-7.33 15 -7.66 15 -8 15 C-8.08153933 13.41753293 -8.13943557 11.83383727 -8.1875 10.25 C-8.22230469 9.36828125 -8.25710938 8.4865625 -8.29296875 7.578125 C-7.94923684 4.55328417 -6.99772541 3.24416398 -5 1 C-4.34 1.33 -3.68 1.66 -3 2 C-3 3.32 -3 4.64 -3 6 C-1.48145881 8.36128688 -1.48145881 8.36128688 0.5 10.625 C4 14.80555556 4 14.80555556 4 17 C4.66 16.67 5.32 16.34 6 16 C5.39929688 15.26394531 4.79859375 14.52789062 4.1796875 13.76953125 C3.03886719 12.30580078 3.03886719 12.30580078 1.875 10.8125 C1.10929687 9.84957031 0.34359375 8.88664062 -0.4453125 7.89453125 C-2 5 -2 5 -1.2421875 2.13671875 C-0.62730469 1.07904297 -0.62730469 1.07904297 0 0 Z " fill="#6C757E" transform="translate(359,94)"/>
<path d="M0 0 C3.23356015 1.21258505 4.00856305 2.01284458 6 5 C6.67776401 10.09111103 6.7758109 14.56331314 4.3125 19.125 C2 21 2 21 -3 22 C-1.35 25.63 0.3 29.26 2 33 C1.01 33 0.02 33 -1 33 C-1.86627399 31.40233897 -2.71766465 29.79660056 -3.5625 28.1875 C-4.03816406 27.29417969 -4.51382812 26.40085937 -5.00390625 25.48046875 C-6 23 -6 23 -5 20 C-3.00854609 18.98308736 -1.00812926 17.98357352 1 17 C3.52402344 13.21396483 3.62307412 10.4452154 3 6 C1.74882038 4.07994865 1.74882038 4.07994865 0 3 C-0.66 2.34 -1.32 1.68 -2 1 C-1.34 0.67 -0.68 0.34 0 0 Z " fill="#D0DDE7" transform="translate(438,78)"/>
<path d="M0 0 C0.66 0 1.32 0 2 0 C2.0744389 4.0384057 2.12873729 8.07654293 2.16479492 12.11547852 C2.17983432 13.48794517 2.20027133 14.86036414 2.22631836 16.23266602 C2.26291221 18.21088656 2.27816698 20.18946514 2.29296875 22.16796875 C2.31653442 23.95110474 2.31653442 23.95110474 2.34057617 25.77026367 C1.96459616 29.33574006 1.05685695 31.10614823 -1 34 C-1.66 34.99 -2.32 35.98 -3 37 C-5.625 37.1875 -5.625 37.1875 -8 37 C-7.57847656 36.52949219 -7.15695313 36.05898437 -6.72265625 35.57421875 C-6.17480469 34.95160156 -5.62695312 34.32898438 -5.0625 33.6875 C-4.51722656 33.07261719 -3.97195313 32.45773438 -3.41015625 31.82421875 C-0.73939868 28.36924982 -0.82215645 25.01704641 -0.68359375 20.80078125 C-0.64169922 19.59228516 -0.59980469 18.38378906 -0.55664062 17.13867188 C-0.51732422 15.87603516 -0.47800781 14.61339844 -0.4375 13.3125 C-0.37272461 11.40114258 -0.37272461 11.40114258 -0.30664062 9.45117188 C-0.2004514 6.30089148 -0.09840467 3.15053161 0 0 Z " fill="#E0ECF6" transform="translate(262,76)"/>
<path d="M0 0 C1.56640625 1.16796875 1.56640625 1.16796875 2.56640625 4.16796875 C-2.43359375 2.16796875 -2.43359375 2.16796875 -4.62109375 0.98046875 C-9.84884203 -0.52976964 -15.20567244 0.32630959 -20.24609375 2.23046875 C-22.98938227 4.66023858 -24.6135905 7.35435545 -26.41796875 10.5234375 C-26.753125 11.06613281 -27.08828125 11.60882813 -27.43359375 12.16796875 C-27.76359375 12.16796875 -28.09359375 12.16796875 -28.43359375 12.16796875 C-28.92001793 9.49263575 -28.77082156 7.73875804 -27.37890625 5.3828125 C-20.20021215 -3.75547107 -10.06802574 -5.14237714 0 0 Z " fill="#C6D1DA" transform="translate(327.43359375,78.83203125)"/>
<path d="M0 0 C0.66 0 1.32 0 2 0 C2.33 5.28 2.66 10.56 3 16 C3.33 11.38 3.66 6.76 4 2 C4.66 2 5.32 2 6 2 C6.16918268 3.58306647 6.33523936 5.16646719 6.5 6.75 C6.5928125 7.63171875 6.685625 8.5134375 6.78125 9.421875 C7 12 7 12 7 16 C6.35546875 16.74636719 5.7109375 17.49273437 5.046875 18.26171875 C2.46225039 21.71939403 2.33762097 24.65050385 2.25 28.8125 C2.22035156 29.50537109 2.19070313 30.19824219 2.16015625 30.91210938 C2.09000372 32.60746213 2.04267338 34.30373312 2 36 C1.67 36 1.34 36 1 36 C0.67 24.12 0.34 12.24 0 0 Z " fill="#5B656D" transform="translate(343,76)"/>
<path d="M0 0 C0.66 0 1.32 0 2 0 C3.77082675 2.77033979 5.35373218 5.62378967 6.953125 8.49609375 C8.83129594 11.29480324 8.83129594 11.29480324 12.234375 11.84765625 C13.14703125 11.89792969 14.0596875 11.94820312 15 12 C14.67 11.01 14.34 10.02 14 9 C15.32 9.33 16.64 9.66 18 10 C18.33 11.32 18.66 12.64 19 14 C15.2205684 14.49207789 11.76212452 14.68862575 8 14 C5.68015868 12.10760708 4.14099593 10.20303414 2.4375 7.75 C1.963125 7.1725 1.48875 6.595 1 6 C0.01 6 -0.98 6 -2 6 C-1.49396008 3.83125748 -1.00016187 2.00032373 0 0 Z " fill="#B6C1CA" transform="translate(473,101)"/>
<path d="M0 0 C1.43655854 -0.08131463 2.8744483 -0.13933559 4.3125 -0.1875 C5.51326172 -0.23970703 5.51326172 -0.23970703 6.73828125 -0.29296875 C9 0 9 0 10.76171875 1.29296875 C12.86440543 4.19162515 12.49054477 6.56618658 12 10 C10.0625 12 10.0625 12 7 13 C3.94472236 12.93358092 1.0046127 12.54331777 -2 12 C-2 10.02 -2 8.04 -2 6 C0.46800047 7.15173355 2.04783565 8.04783565 4 10 C6.60280568 9.67958603 6.60280568 9.67958603 9 9 C9.042721 7.33388095 9.04063832 5.66617115 9 4 C7.50256881 2.50256881 6.01175761 2.66797307 3.9375 2.4375 C2.638125 2.293125 1.33875 2.14875 0 2 C0 1.34 0 0.68 0 0 Z " fill="#8F99A1" transform="translate(426,82)"/>
<path d="M0 0 C0.99 0.33 1.98 0.66 3 1 C1.38661617 3.67386147 -0.24256379 6.33773489 -1.875 9 C-2.33519531 9.763125 -2.79539062 10.52625 -3.26953125 11.3125 C-3.71425781 12.034375 -4.15898437 12.75625 -4.6171875 13.5 C-5.02565918 14.1703125 -5.43413086 14.840625 -5.85498047 15.53125 C-6.23283691 16.0159375 -6.61069336 16.500625 -7 17 C-7.66 17 -8.32 17 -9 17 C-10.65625 14.734375 -10.65625 14.734375 -12.5 11.75 C-13.1084375 10.77546875 -13.716875 9.8009375 -14.34375 8.796875 C-15.66713848 6.56209634 -16.88436415 4.34283528 -18 2 C-17.01 2 -16.02 2 -15 2 C-13.46484375 4.1875 -13.46484375 4.1875 -11.9375 7 C-11.01137659 8.69671464 -10.04323525 10.37266925 -9 12 C-8.34 12 -7.68 12 -7 12 C-5.71593601 10.04775792 -4.52058322 8.03659238 -3.375 6 C-2.74335938 4.88625 -2.11171875 3.7725 -1.4609375 2.625 C-0.97882813 1.75875 -0.49671875 0.8925 0 0 Z " fill="#DFE6EB" transform="translate(480,76)"/>
<path d="M0 0 C0.66 0 1.32 0 2 0 C1.39809977 3.04294007 0.4634908 5.07218064 -1.375 7.5625 C-1.79523438 8.14128906 -2.21546875 8.72007813 -2.6484375 9.31640625 C-4.00145164 11.00180826 -5.44348113 12.50264705 -7 14 C-5.6744419 17.62276315 -4.05653045 20.63505348 -1.875 23.8125 C-1.33617187 24.60269531 -0.79734375 25.39289063 -0.2421875 26.20703125 C0.16773438 26.79871094 0.57765625 27.39039062 1 28 C0.01 28 -0.98 28 -2 28 C-3.69630313 26.03123367 -5.19536118 24.11326838 -6.6875 22 C-7.10322266 21.42765625 -7.51894531 20.8553125 -7.94726562 20.265625 C-8.97356861 18.85003468 -9.98793399 17.42580369 -11 16 C-9.31906944 12.23617723 -6.95783133 9.03234344 -4.5 5.75 C-4.09652344 5.19570312 -3.69304687 4.64140625 -3.27734375 4.0703125 C-2.23549829 2.67430835 -1.12254588 1.33197608 0 0 Z " fill="#DEE8EE" transform="translate(365,83)"/>
<path d="M0 0 C0.66 0 1.32 0 2 0 C2.08738991 4.37487331 2.140524 8.74952078 2.1875 13.125 C2.22520508 14.98125 2.22520508 14.98125 2.26367188 16.875 C2.27817383 18.67324219 2.27817383 18.67324219 2.29296875 20.5078125 C2.3086792 21.60754395 2.32438965 22.70727539 2.34057617 23.84033203 C1.94494088 27.51080657 0.92497537 29.86406674 -1 33 C-1.99 33.66 -2.98 34.32 -4 35 C-4 32 -4 32 -2.53198242 30.21972656 C-0.4710116 27.23353585 -0.57025107 25.09104697 -0.48828125 21.484375 C-0.45283203 20.23398438 -0.41738281 18.98359375 -0.38085938 17.6953125 C-0.34702148 15.74238281 -0.34702148 15.74238281 -0.3125 13.75 C-0.27833984 12.43257812 -0.24417969 11.11515625 -0.20898438 9.7578125 C-0.12649294 6.50529322 -0.0573433 3.25304404 0 0 Z " fill="#67717B" transform="translate(260,76)"/>
<path d="M0 0 C2 1 2 1 3 3.6875 C3.33 4.780625 3.66 5.87375 4 7 C4.37125 8.11375 4.7425 9.2275 5.125 10.375 C5.41375 11.24125 5.7025 12.1075 6 13 C6.66 12.67 7.32 12.34 8 12 C7.34 10.906875 6.68 9.81375 6 8.6875 C4.41535071 6.06292462 4 5.1743622 4 2 C5.32 1.67 6.64 1.34 8 1 C7.67 1.99 7.34 2.98 7 4 C7.97920197 6.78607565 7.97920197 6.78607565 9.4375 9.6875 C9.91058594 10.68136719 10.38367188 11.67523438 10.87109375 12.69921875 C11.24363281 13.45847656 11.61617188 14.21773437 12 15 C9.69 15 7.38 15 5 15 C3.96709159 13.06891037 2.94901328 11.129882 1.9375 9.1875 C1.08478516 7.56908203 1.08478516 7.56908203 0.21484375 5.91796875 C-1 3 -1 3 0 0 Z " fill="#79838C" transform="translate(431,98)"/>
<path d="M0 0 C2.9375 1.3125 2.9375 1.3125 3.8125 3.4375 C3.874375 4.365625 3.874375 4.365625 3.9375 5.3125 C4.5975 5.3125 5.2575 5.3125 5.9375 5.3125 C7.5625 6.8125 7.5625 6.8125 8.9375 8.3125 C8.2775 9.9625 7.6175 11.6125 6.9375 13.3125 C3.44642621 12.14880874 3.08527237 11.42276462 1.25 8.375 C0.81300781 7.66472656 0.37601562 6.95445313 -0.07421875 6.22265625 C-1.0625 4.3125 -1.0625 4.3125 -1.0625 2.3125 C-2.3825 2.3125 -3.7025 2.3125 -5.0625 2.3125 C-5.0625 1.6525 -5.0625 0.9925 -5.0625 0.3125 C-3.0625 -0.6875 -3.0625 -0.6875 0 0 Z " fill="#C4CFD6" transform="translate(466.0625,75.6875)"/>
<path d="M0 0 C3.384897 0.91483703 4.76110439 1.66225103 6.8125 4.5625 C8.52206063 9.51122813 9.04149924 14.04348604 7.2734375 19.0625 C5.69196245 22.14830497 4.33154006 23.82669497 1.25 25.4375 C0.5075 25.623125 -0.235 25.80875 -1 26 C-1.66 25.34 -2.32 24.68 -3 24 C-2.505 22.515 -2.505 22.515 -2 21 C-1.67 21.99 -1.34 22.98 -1 24 C3.19970516 20.01566433 4.83149006 18.0558213 5.3125 12.1875 C5.28047358 7.83991407 3.68635351 5.41899538 1 2 C0.67 1.34 0.34 0.68 0 0 Z " fill="#E0E9EF" transform="translate(209,83)"/>
<path d="M0 0 C-0.99 0.495 -0.99 0.495 -2 1 C-2.33 1.66 -2.66 2.32 -3 3 C-3.61875 2.360625 -4.2375 1.72125 -4.875 1.0625 C-7.73120595 -1.70969989 -9.36657189 -2.18701508 -13.25 -2.3125 C-17.92810125 -2.23741009 -20.46214212 -1.20875482 -24 2 C-25.56407747 4.27546474 -26.75909199 6.51818398 -28 9 C-28.66 8.34 -29.32 7.68 -30 7 C-24.95956263 -2.10715388 -24.95956263 -2.10715388 -20.1875 -4.125 C-12.53340914 -6.27223541 -6.42970601 -4.24086992 0 0 Z " fill="#6E7782" transform="translate(330,83)"/>
<path d="M0 0 C4.5214855 1.82445906 6.41606428 4.14462856 8.5625 8.4375 C8.93448088 14.01721317 8.76517163 17.63349256 5.5625 22.4375 C3.375 23.8125 3.375 23.8125 1.5625 24.4375 C3.5625 20.4375 3.5625 20.4375 4.6875 18.6875 C6.01519864 15.27341778 6.11689652 12.01264677 5.5625 8.4375 C3.96822949 5.38181485 2.78661579 3.88369488 -0.484375 2.69140625 C-2.448421 2.18646535 -4.44282884 1.80318971 -6.4375 1.4375 C-3.4375 -0.5625 -3.4375 -0.5625 0 0 Z " fill="#69737A" transform="translate(206.4375,82.5625)"/>
<path d="M0 0 C2.64 0 5.28 0 8 0 C8 0.66 8 1.32 8 2 C6.02 2 4.04 2 2 2 C2 2.66 2 3.32 2 4 C3.918125 3.938125 3.918125 3.938125 5.875 3.875 C8.0546875 3.8046875 8.0546875 3.8046875 10 4 C12 6 12 6 12.3125 8.5 C12.1578125 9.7375 12.1578125 9.7375 12 11 C8.5647952 13.29013653 7.014669 13.17842973 3 13 C5.61941217 11.25372522 7.03824877 10.61277612 10 10 C9.67 9.01 9.34 8.02 9 7 C6.03 6.67 3.06 6.34 0 6 C0 4.02 0 2.04 0 0 Z " fill="#DBE8F1" transform="translate(424,80)"/>
<path d="M0 0 C0.33 0 0.66 0 1 0 C0.57058857 6.01175995 -0.56336805 10.95170617 -4 16 C-4.99 16.66 -5.98 17.32 -7 18 C-7.25015873 21.58357241 -7.25015873 21.58357241 -7 25 C-11 20.375 -11 20.375 -11 17 C-10.24332031 16.41734375 -9.48664063 15.8346875 -8.70703125 15.234375 C-5.44111388 12.53869717 -4.35075115 10.11802592 -2.6875 6.25 C-2.17574219 5.07953125 -1.66398438 3.9090625 -1.13671875 2.703125 C-0.76160156 1.81109375 -0.38648438 0.9190625 0 0 Z " fill="#ADBAC2" transform="translate(221,93)"/>
<path d="M0 0 C6.40141012 -0.51211281 9.98010898 -0.11888494 15 4 C14.6875 5.9375 14.6875 5.9375 14 8 C13.01 8.33 12.02 8.66 11 9 C9.66666667 8.33333333 8.33333333 7.66666667 7 7 C4.67504723 6.61250787 2.34148732 6.27017161 0 6 C2 4 2 4 5.4375 3.75 C9 4 9 4 12 6 C12 5.34 12 4.68 12 4 C6.06 2.515 6.06 2.515 0 1 C0 0.67 0 0.34 0 0 Z " fill="#D0DBE4" transform="translate(312,80)"/>
<path d="M0 0 C0.99 0 1.98 0 3 0 C3 0.66 3 1.32 3 2 C3.66 2 4.32 2 5 2 C5 1.34 5 0.68 5 0 C6.32 0.66 7.64 1.32 9 2 C9.22057835 5.97041037 8.88343932 7.23312136 7 11 C4.03 8.03 1.06 5.06 -2 2 C-1.34 1.34 -0.68 0.68 0 0 Z " fill="#E6EBEF" transform="translate(78,106)"/>
<path d="M0 0 C2.95360817 0.20369712 4.04720967 1.04327553 6.25 3.0625 C8.51435424 6.86338033 8.73348931 9.67765227 8 14 C6.6875 16.9375 6.6875 16.9375 5 19 C4.01 19.33 3.02 19.66 2 20 C2.61277612 17.03824877 3.25372522 15.61941217 5 13 C4.68372903 9.45776514 4.12451909 6.37355726 3 3 C0.99983534 1.79117904 0.99983534 1.79117904 -1 1 C-0.67 0.67 -0.34 0.34 0 0 Z " fill="#CDD9E1" transform="translate(205,85)"/>
<path d="M0 0 C1.65 0.33 3.3 0.66 5 1 C5.12375 1.928125 5.12375 1.928125 5.25 2.875 C5.81258459 5.18437567 5.81258459 5.18437567 8.0625 6.25 C8.701875 6.4975 9.34125 6.745 10 7 C8.02 7 6.04 7 4 7 C3.67 6.34 3.34 5.68 3 5 C2.01 5.66 1.02 6.32 0 7 C-2.6875 7.125 -2.6875 7.125 -5 7 C-5 8.32 -5 9.64 -5 11 C-3.35 11 -1.7 11 0 11 C-0.33 12.32 -0.66 13.64 -1 15 C-1.33 14.34 -1.66 13.68 -2 13 C-4.02463255 12.34786708 -4.02463255 12.34786708 -6 12 C-6 10.02 -6 8.04 -6 6 C-5.38125 5.938125 -4.7625 5.87625 -4.125 5.8125 C-1.72238859 5.171081 -1.72238859 5.171081 -0.75 2.4375 C-0.5025 1.633125 -0.255 0.82875 0 0 Z " fill="#9AA5B1" transform="translate(133,75)"/>
<path d="M0 0 C6.04955862 5.55905387 8.37903576 10.42750266 9.015625 18.51953125 C8.99356599 22.02139984 8.20986822 24.72623893 7 28 C6.67 28 6.34 28 6 28 C6 22.72 6 17.44 6 12 C3.9254644 11.8509288 3.9254644 11.8509288 2 13 C2.20625 12.278125 2.4125 11.55625 2.625 10.8125 C3.06559399 7.50804511 2.4085401 5.97358465 1 3 C0.67 2.01 0.34 1.02 0 0 Z " fill="#818F98" transform="translate(152,66)"/>
<path d="M0 0 C1.258125 -0.020625 2.51625 -0.04125 3.8125 -0.0625 C4.52019531 -0.07410156 5.22789062 -0.08570312 5.95703125 -0.09765625 C8 0 8 0 11 1 C11 1.66 11 2.32 11 3 C10.01 3.495 10.01 3.495 9 4 C9 5.98 9 7.96 9 10 C7.68 10 6.36 10 5 10 C5 8.02 5 6.04 5 4 C3.35 4 1.7 4 0 4 C0 2.68 0 1.36 0 0 Z " fill="#EFF8FC" transform="translate(128,82)"/>
<path d="M0 0 C3.15069422 1.36689554 5.00891774 2.85657885 7.1875 5.5 C7.95126953 6.41265625 7.95126953 6.41265625 8.73046875 7.34375 C10 9 10 9 11 11 C11.99 11.33 12.98 11.66 14 12 C14.33 11.34 14.66 10.68 15 10 C15.33 11.32 15.66 12.64 16 14 C13.36 13.67 10.72 13.34 8 13 C8 12.34 8 11.68 8 11 C7.01 11 6.02 11 5 11 C4.67 10.01 4.34 9.02 4 8 C3.34 7.67 2.68 7.34 2 7 C1.4375 5.125 1.4375 5.125 1 3 C0.67 2.01 0.34 1.02 0 0 Z " fill="#DAE1E5" transform="translate(99,63)"/>
<path d="M0 0 C0.53625 0.639375 1.0725 1.27875 1.625 1.9375 C4.44367193 4.38529404 6.33860732 4.66714612 10 5 C10.33 4.01 10.66 3.02 11 2 C11.99 2.99 12.98 3.98 14 5 C13.67 5.99 13.34 6.98 13 8 C9.37 8 5.74 8 2 8 C0 3 0 3 0 0 Z " fill="#C0CDD7" transform="translate(206,118)"/>
<path d="M0 0 C3.2204989 -0.11299996 5.05224383 -0.14405921 8 1 C10.84375568 4.03408579 12.90800888 7.41978228 15 11 C15.56074219 11.89203125 16.12148437 12.7840625 16.69921875 13.703125 C18 16 18 16 18 18 C13.55121196 16.51707065 12.3239933 12.70408676 10.22460938 8.74804688 C8.37016617 5.49457383 7.32728198 4.13147225 3.80078125 2.71484375 C2.87652344 2.47894531 1.95226562 2.24304688 1 2 C0.67 1.34 0.34 0.68 0 0 Z " fill="#D7E1EA" transform="translate(195,104)"/>
<path d="M0 0 C3.63 0 7.26 0 11 0 C11 0.33 11 0.66 11 1 C8.03 1 5.06 1 2 1 C2 3.31 2 5.62 2 8 C2.99 8.33 3.98 8.66 5 9 C4.01 9.33 3.02 9.66 2 10 C2 11.98 2 13.96 2 16 C3.32 16.33 4.64 16.66 6 17 C4.02 17.33 2.04 17.66 0 18 C0 12.06 0 6.12 0 0 Z " fill="#6E7881" transform="translate(422,78)"/>
<path d="M0 0 C1.65 0.33 3.3 0.66 5 1 C5 1.66 5 2.32 5 3 C4.01 3.33 3.02 3.66 2 4 C1.67 4.66 1.34 5.32 1 6 C0.34 6 -0.32 6 -1 6 C-1.4021875 7.1446875 -1.4021875 7.1446875 -1.8125 8.3125 C-2.94424112 10.87380884 -3.91223401 12.19692938 -6 14 C-6.33 12.68 -6.66 11.36 -7 10 C-6.01 9.67 -5.02 9.34 -4 9 C-4 7.02 -4 5.04 -4 3 C-2.68 2.67 -1.36 2.34 0 2 C0 1.34 0 0.68 0 0 Z " fill="#EDF1F7" transform="translate(126,66)"/>
<path d="M0 0 C0.33 0 0.66 0 1 0 C1.21692384 3.95021734 1.41380269 7.90087016 1.59204102 11.85302734 C1.65552415 13.19770072 1.72450857 14.54212599 1.79907227 15.88623047 C1.90520939 17.8166439 1.99002538 19.74819259 2.07421875 21.6796875 C2.13182373 22.84226074 2.18942871 24.00483398 2.2487793 25.20263672 C2.16668213 26.1257666 2.08458496 27.04889648 2 28 C-1.45214853 30.30143236 -2.23479324 30.13833854 -6.1875 29.625 C-7.08855469 29.51414062 -7.98960937 29.40328125 -8.91796875 29.2890625 C-9.60503906 29.19367188 -10.29210937 29.09828125 -11 29 C-11 28.01 -11 27.02 -11 26 C-10.67 26.33 -10.34 26.66 -10 27 C-7.32941149 27.14115161 -4.67567762 27.04247107 -2 27 C-0.68638302 24.37276604 -0.78746091 22.27389439 -0.68359375 19.3359375 C-0.64169922 18.21445313 -0.59980469 17.09296875 -0.55664062 15.9375 C-0.51732422 14.761875 -0.47800781 13.58625 -0.4375 12.375 C-0.39431641 11.19164063 -0.35113281 10.00828125 -0.30664062 8.7890625 C-0.20032574 5.85949672 -0.09829358 2.92984412 0 0 Z " fill="#949FAC" transform="translate(254,76)"/>
<path d="M0 0 C0.66 0.33 1.32 0.66 2 1 C1.50628906 1.48726563 1.01257813 1.97453125 0.50390625 2.4765625 C-5.56987718 9.19805321 -6.08833141 15.12900234 -6 24 C-6.66 24 -7.32 24 -8 24 C-9.22690583 12.17399103 -9.22690583 12.17399103 -6.21875 6.84375 C-4.24648629 4.4270325 -2.23962325 2.16963502 0 0 Z " fill="#E3EEF5" transform="translate(353,87)"/>
<path d="M0 0 C1.98 0 3.96 0 6 0 C5.67 2.31 5.34 4.62 5 7 C4.67 7 4.34 7 4 7 C4 5.35 4 3.7 4 2 C3.34 2 2.68 2 2 2 C2 6.62 2 11.24 2 16 C1.34 16.33 0.68 16.66 0 17 C0 11.39 0 5.78 0 0 Z " fill="#E2ECF2" transform="translate(345,76)"/>
<path d="M0 0 C0.66 0.99 1.32 1.98 2 3 C1.34 3 0.68 3 0 3 C2.76114101 7.24790925 5.70437074 11.27587945 8.828125 15.265625 C10 17 10 17 10 19 C7.69 19 5.38 19 3 19 C3.99 18.01 4.98 17.02 6 16 C5.39929688 15.26394531 4.79859375 14.52789062 4.1796875 13.76953125 C3.41914063 12.79371094 2.65859375 11.81789063 1.875 10.8125 C1.10929687 9.84957031 0.34359375 8.88664062 -0.4453125 7.89453125 C-2 5 -2 5 -1.2421875 2.13671875 C-0.62730469 1.07904297 -0.62730469 1.07904297 0 0 Z " fill="#707A82" transform="translate(359,94)"/>
<path d="M0 0 C0.33 0 0.66 0 1 0 C1.10957031 0.66386719 1.21914062 1.32773438 1.33203125 2.01171875 C2.49720428 8.5006905 3.34968255 13.04106971 8.875 17.125 C10.86044541 18.31626724 12.85929242 19.48568702 14.875 20.625 C15.57625 21.07875 16.2775 21.5325 17 22 C17 22.66 17 23.32 17 24 C15.35 24 13.7 24 12 24 C12.66 23.67 13.32 23.34 14 23 C14 22.34 14 21.68 14 21 C13.319375 20.95875 12.63875 20.9175 11.9375 20.875 C7.22833721 19.47227066 3.4552262 16.27053208 0.80078125 12.12890625 C-0.1711279 9.54505023 -0.19743508 7.50253318 -0.125 4.75 C-0.09792969 3.41195312 -0.09792969 3.41195312 -0.0703125 2.046875 C-0.04710937 1.37140625 -0.02390625 0.6959375 0 0 Z " fill="#5F6A72" transform="translate(185,91)"/>
<path d="M0 0 C0.33 0 0.66 0 1 0 C1.01981934 0.77714355 1.03963867 1.55428711 1.06005859 2.35498047 C1.15507009 5.86200691 1.26484559 9.36841794 1.375 12.875 C1.4059375 14.09832031 1.436875 15.32164063 1.46875 16.58203125 C1.50742188 17.74863281 1.54609375 18.91523437 1.5859375 20.1171875 C1.6173584 21.19597168 1.6487793 22.27475586 1.68115234 23.38623047 C1.74676322 26.15761654 1.74676322 26.15761654 4 28 C6.32275177 28.40047444 8.65739357 28.7397104 11 29 C11 29.33 11 29.66 11 30 C7.8125 30.8125 7.8125 30.8125 4 31 C1.27059977 29.35615668 0.37179313 28.76395772 -1 26 C-1.47682554 21.52779773 -1.14715914 17.16326498 -0.8125 12.6875 C-0.74224609 11.46998047 -0.67199219 10.25246094 -0.59960938 8.99804688 C-0.42304524 5.99645655 -0.22240375 2.99848481 0 0 Z " fill="#8A959F" transform="translate(239,78)"/>
<path d="M0 0 C0.66 0.33 1.32 0.66 2 1 C2 1.66 2 2.32 2 3 C2.66 3.33 3.32 3.66 4 4 C3.67 4.66 3.34 5.32 3 6 C2.34 6 1.68 6 1 6 C0.34 7.65 -0.32 9.3 -1 11 C-2.65 11 -4.3 11 -6 11 C-4.02 7.37 -2.04 3.74 0 0 Z " fill="#7B858D" transform="translate(469,104)"/>
<path d="M0 0 C3.23366021 0.26947168 4.7662866 0.7987468 7.25 2.9375 C9.62180798 7.08816396 10.25344698 11.22674863 10 16 C9.34 16.66 8.68 17.32 8 18 C7.92523438 17.3709375 7.85046875 16.741875 7.7734375 16.09375 C6.73271172 9.31882921 4.53571207 5.10624189 0 0 Z " fill="#B8C2CD" transform="translate(211,80)"/>
<path d="M0 0 C2.40119059 3.60178588 2.43771322 6.50866369 2.625 10.6875 C2.66367187 11.38939453 2.70234375 12.09128906 2.7421875 12.81445312 C2.8362334 14.54254655 2.9191968 16.27123675 3 18 C2.34 18 1.68 18 1 18 C-0.83950258 12.59646117 -1.50030131 7.71274291 -1 2 C-0.67 1.34 -0.34 0.68 0 0 Z " fill="#B1BDC7" transform="translate(298,88)"/>
<path d="M0 0 C3.51973101 3.25901019 6.52760275 6.8860931 9 11 C9 11.66 9 12.32 9 13 C11.31 13 13.62 13 16 13 C16 13.33 16 13.66 16 14 C12.80837857 14.65135131 10.16929436 14.83244124 7 14 C3.96298858 11.06202156 1.79884382 7.81748207 0 4 C0 2.68 0 1.36 0 0 Z " fill="#D2DEE6" transform="translate(353,100)"/>
<path d="M0 0 C1.65 0 3.3 0 5 0 C6.32 2.64 7.64 5.28 9 8 C8.01 9.485 8.01 9.485 7 11 C5.515 8.03 5.515 8.03 4 5 C3.67 7.64 3.34 10.28 3 13 C2.67 13 2.34 13 2 13 C1.93941406 12.22914062 1.87882812 11.45828125 1.81640625 10.6640625 C1.73261719 9.66117188 1.64882813 8.65828125 1.5625 7.625 C1.48128906 6.62726563 1.40007812 5.62953125 1.31640625 4.6015625 C1.15034374 2.02072387 1.15034374 2.02072387 0 0 Z " fill="#A4B1B8" transform="translate(424,98)"/>
<path d="M0 0 C6.93095537 2.87026205 10.97518084 4.98791923 14 12 C13.34 12.66 12.68 13.32 12 14 C11.505 12.9275 11.01 11.855 10.5 10.75 C8.02605229 6.33095571 4.59011153 4.79370863 0 3 C0 2.01 0 1.02 0 0 Z " fill="#D7DFE6" transform="translate(192,105)"/>
<path d="M0 0 C0.99 0.33 1.98 0.66 3 1 C4.17755913 3.94389782 4.03348696 4.89953913 3 8 C2.01 8.33 1.02 8.66 0 9 C0 8.34 0 7.68 0 7 C-0.66 7 -1.32 7 -2 7 C-2.6875 5.1875 -2.6875 5.1875 -3 3 C-1.5625 1.25 -1.5625 1.25 0 0 Z " fill="#F3F7FA" transform="translate(146,96)"/>
<path d="M0 0 C0.625 1.8125 0.625 1.8125 1 4 C-1.2180224 7.3270336 -2.27641285 7.88292386 -6 9 C-6.66 8.67 -7.32 8.34 -8 8 C-7.67 5.69 -7.34 3.38 -7 1 C-6.34 1.33 -5.68 1.66 -5 2 C-4.67 2.99 -4.34 3.98 -4 5 C-2.68 3.35 -1.36 1.7 0 0 Z " fill="#ADBCC3" transform="translate(357,80)"/>
<path d="M0 0 C4 2 8 4 12 6 C12 6.66 12 7.32 12 8 C6.77848267 7.59046923 3.70045754 6.81259261 0 3 C0 2.01 0 1.02 0 0 Z " fill="#CBD6DB" transform="translate(187,106)"/>
<path d="M0 0 C0.556875 0.226875 1.11375 0.45375 1.6875 0.6875 C0.800625 1.05875 -0.08625 1.43 -1 1.8125 C-4.86085701 3.99789076 -6.8381281 6.01129033 -9.3125 9.6875 C-10.19255337 13.41447218 -10.19255337 13.41447218 -10.3125 16.6875 C-10.6425 16.6875 -10.9725 16.6875 -11.3125 16.6875 C-11.73063284 10.62457386 -11.44524522 7.49042012 -7.3125 2.6875 C-3.27389569 -0.44241834 -3.27389569 -0.44241834 0 0 Z " fill="#E5ECF3" transform="translate(313.3125,81.3125)"/>
<path d="M0 0 C0.7734375 -0.00515625 1.546875 -0.0103125 2.34375 -0.015625 C4.5 0.25 4.5 0.25 7.5 2.25 C7.5 2.91 7.5 3.57 7.5 4.25 C6.51 3.92 5.52 3.59 4.5 3.25 C-0.06187786 2.99656234 -3.37151072 3.24830823 -7.5 5.25 C-7.5 4.26 -7.5 3.27 -7.5 2.25 C-4.377998 0.16866533 -3.56733011 -0.0237822 0 0 Z " fill="#707780" transform="translate(316.5,81.75)"/>
<path d="M0 0 C1.32 0.33 2.64 0.66 4 1 C4.33 2.32 4.66 3.64 5 5 C1.37 5 -2.26 5 -6 5 C-6.33 3.68 -6.66 2.36 -7 1 C-4.36 1.66 -1.72 2.32 1 3 C0.67 2.01 0.34 1.02 0 0 Z " fill="#D1DEE5" transform="translate(487,110)"/>
<path d="M0 0 C0.66 0 1.32 0 2 0 C2.928125 1.175625 2.928125 1.175625 3.875 2.375 C7.74301936 6.52518491 13.65226869 6.42855184 19 7 C19 7.33 19 7.66 19 8 C17.27119018 8.05449838 15.54187288 8.09301688 13.8125 8.125 C12.84957031 8.14820312 11.88664063 8.17140625 10.89453125 8.1953125 C7.05623954 7.93631846 4.20428847 6.95512534 1.1875 4.5625 C0 3 0 3 0 0 Z " fill="#DAE5ED" transform="translate(234,106)"/>
<path d="M0 0 C0.66 0.33 1.32 0.66 2 1 C-0.34488245 3.94851556 -1.42333987 4.93035506 -5.234375 5.390625 C-6.39453125 5.34421875 -7.5546875 5.2978125 -8.75 5.25 C-9.92046875 5.21390625 -11.0909375 5.1778125 -12.296875 5.140625 C-13.18890625 5.09421875 -14.0809375 5.0478125 -15 5 C-15.33 4.01 -15.66 3.02 -16 2 C-14.77023438 2.03480469 -14.77023438 2.03480469 -13.515625 2.0703125 C-12.43796875 2.08835937 -11.3603125 2.10640625 -10.25 2.125 C-9.18265625 2.14820312 -8.1153125 2.17140625 -7.015625 2.1953125 C-4.035278 2.00228484 -2.57185626 1.37860764 0 0 Z " fill="#92A0A5" transform="translate(144,96)"/>
<path d="M0 0 C0.99 0.33 1.98 0.66 3 1 C3.625 2.7421875 3.625 2.7421875 4 4.875 C4.67996728 8.09043851 5.23377233 9.98819806 8 12 C6.68 12.33 5.36 12.66 4 13 C0.47726246 8.48649253 -0.45732667 5.71658336 0 0 Z " fill="#B1BEC7" transform="translate(190,92)"/>
<path d="M0 0 C0.66 0 1.32 0 2 0 C3.14501953 1.37695312 3.14501953 1.37695312 4.3828125 3.28125 C4.82753906 3.95800781 5.27226562 4.63476562 5.73046875 5.33203125 C6.19066406 6.04746094 6.65085937 6.76289062 7.125 7.5 C7.82689453 8.57314453 7.82689453 8.57314453 8.54296875 9.66796875 C9.70152501 11.44126915 10.85156066 13.2201309 12 15 C11.34 15.66 10.68 16.32 10 17 C8.32972219 14.35642999 6.6643902 11.70978008 5 9.0625 C4.52304687 8.30775391 4.04609375 7.55300781 3.5546875 6.77539062 C3.10351562 6.05673828 2.65234375 5.33808594 2.1875 4.59765625 C1.76855469 3.93258057 1.34960938 3.26750488 0.91796875 2.58227539 C0 1 0 1 0 0 Z " fill="#7A8289" transform="translate(459,76)"/>
<path d="M0 0 C0.99 0 1.98 0 3 0 C3.103125 1.03125 3.20625 2.0625 3.3125 3.125 C3.99127797 6.95083945 5.11158795 9.63370025 7 13 C6.01 13 5.02 13 4 13 C3.13372601 11.40233897 2.28233535 9.79660056 1.4375 8.1875 C0.96183594 7.29417969 0.48617188 6.40085937 -0.00390625 5.48046875 C-1 3 -1 3 0 0 Z " fill="#E0E9F0" transform="translate(433,98)"/>
<path d="M0 0 C0.66 0 1.32 0 2 0 C1.39305845 3.15330554 0.3583335 5.18888867 -1.5625 7.75 C-2.24505859 8.67039062 -2.24505859 8.67039062 -2.94140625 9.609375 C-3.46541016 10.29773438 -3.46541016 10.29773438 -4 11 C-4.99 10.67 -5.98 10.34 -7 10 C-6.57847656 9.44570312 -6.15695312 8.89140625 -5.72265625 8.3203125 C-5.17480469 7.59585938 -4.62695312 6.87140625 -4.0625 6.125 C-3.51722656 5.40570313 -2.97195313 4.68640625 -2.41015625 3.9453125 C-0.96035376 2.05642921 -0.96035376 2.05642921 0 0 Z " fill="#C5D0D8" transform="translate(365,83)"/>
<path d="M0 0 C0.66 0 1.32 0 2 0 C2.16918268 1.58306647 2.33523936 3.16646719 2.5 4.75 C2.5928125 5.63171875 2.685625 6.5134375 2.78125 7.421875 C3 10 3 10 3 14 C2.01 13.67 1.02 13.34 0 13 C0 8.71 0 4.42 0 0 Z " fill="#6D797F" transform="translate(347,78)"/>
<path d="M0 0 C1.43655854 -0.08131463 2.8744483 -0.13933559 4.3125 -0.1875 C5.51326172 -0.23970703 5.51326172 -0.23970703 6.73828125 -0.29296875 C9 0 9 0 10.8125 1.34375 C12 3 12 3 11.6875 5.6875 C11.460625 6.450625 11.23375 7.21375 11 8 C10.690625 7.360625 10.38125 6.72125 10.0625 6.0625 C9.1654837 4.06389179 9.1654837 4.06389179 8 3 C6.65252916 2.76924918 5.29622435 2.58846937 3.9375 2.4375 C2.638125 2.293125 1.33875 2.14875 0 2 C0 1.34 0 0.68 0 0 Z " fill="#6A737B" transform="translate(426,82)"/>
<path d="M0 0 C-0.33 0.99 -0.66 1.98 -1 3 C-0.2575 4.4540625 -0.2575 4.4540625 0.5 5.9375 C2.11977564 9.24454193 2.07664214 9.72049139 1 13 C0.15885829 11.56705502 -0.67265687 10.12845595 -1.5 8.6875 C-2.19609375 7.48673828 -2.19609375 7.48673828 -2.90625 6.26171875 C-4 4 -4 4 -4 1 C-2 0 -2 0 0 0 Z " fill="#6F7B83" transform="translate(439,99)"/>
<path d="M0 0 C0.99 0 1.98 0 3 0 C3.8638129 1.45264038 4.71580454 2.9123163 5.5625 4.375 C6.27599609 5.59316406 6.27599609 5.59316406 7.00390625 6.8359375 C7.33261719 7.55007812 7.66132813 8.26421875 8 9 C7.67 9.66 7.34 10.32 7 11 C6.34 11 5.68 11 5 11 C4.16426177 9.35538655 3.33147118 7.70927487 2.5 6.0625 C2.0359375 5.14597656 1.571875 4.22945313 1.09375 3.28515625 C0 1 0 1 0 0 Z " fill="#C5D2D8" transform="translate(437,101)"/>
<path d="M0 0 C0.33 0.99 0.66 1.98 1 3 C-0.65234375 5.48046875 -0.65234375 5.48046875 -2.9375 8.1875 C-3.68902344 9.08855469 -4.44054687 9.98960938 -5.21484375 10.91796875 C-5.80394531 11.60503906 -6.39304687 12.29210937 -7 13 C-7.66 12.34 -8.32 11.68 -9 11 C-6.03 7.37 -3.06 3.74 0 0 Z " fill="#6A777F" transform="translate(359,82)"/>
<path d="M0 0 C1.32 0.66 2.64 1.32 4 2 C3.21625 2.309375 2.4325 2.61875 1.625 2.9375 C-2.19261016 5.93705084 -2.34734749 9.35350378 -3 14 C-3.33 14 -3.66 14 -4 14 C-4.6663569 10.97170479 -5.14543237 8.10601995 -5 5 C-2.5625 1.9375 -2.5625 1.9375 0 0 Z " fill="#B4C0C8" transform="translate(311,85)"/>
<path d="M0 0 C1.32 0.66 2.64 1.32 4 2 C4.1875 4.375 4.1875 4.375 4 7 C0.5647952 9.29013653 -0.985331 9.17842973 -5 9 C-2.38058783 7.25372522 -0.96175123 6.61277612 2 6 C1.34 4.02 0.68 2.04 0 0 Z " fill="#DAE5EC" transform="translate(432,84)"/>
<path d="M0 0 C0.66 0.66 1.32 1.32 2 2 C0.8553125 2.7734375 0.8553125 2.7734375 -0.3125 3.5625 C-3.61575607 6.55847644 -4.48625726 8.85712514 -6 13 C-6.66 11.68 -7.32 10.36 -8 9 C-7.23587913 7.87043002 -6.46340197 6.74651022 -5.6875 5.625 C-5.25824219 4.99851562 -4.82898438 4.37203125 -4.38671875 3.7265625 C-3 2 -3 2 0 0 Z " fill="#717B83" transform="translate(193,80)"/>
<path d="M0 0 C0.66 0 1.32 0 2 0 C2.9765625 1.79036458 3.953125 3.58072917 4.9296875 5.37109375 C5.91410024 7.16618315 5.91410024 7.16618315 8 8 C8 7.34 8 6.68 8 6 C8.66 6 9.32 6 10 6 C9.34 7.65 8.68 9.3 8 11 C4.50892621 9.83630874 4.14777237 9.11026462 2.3125 6.0625 C1.87550781 5.35222656 1.43851562 4.64195313 0.98828125 3.91015625 C0 2 0 2 0 0 Z " fill="#6E787E" transform="translate(465,78)"/>
<path d="M0 0 C0.66 0.66 1.32 1.32 2 2 C1.66681642 5.33183577 0.35199584 7.64800416 -2 10 C-4.6875 10.25 -4.6875 10.25 -7 10 C-6.57847656 9.52949219 -6.15695313 9.05898437 -5.72265625 8.57421875 C-5.17480469 7.95160156 -4.62695312 7.32898438 -4.0625 6.6875 C-3.51722656 6.07261719 -2.97195313 5.45773438 -2.41015625 4.82421875 C-0.79918441 2.94758042 -0.79918441 2.94758042 0 0 Z " fill="#C7D6DE" transform="translate(261,103)"/>
<path d="M0 0 C2.875 0.1875 2.875 0.1875 6 1 C7.4375 3.4375 7.4375 3.4375 8 6 C7.67 6.66 7.34 7.32 7 8 C5.83035398 6.8572081 4.66435444 5.71068285 3.5 4.5625 C2.8503125 3.92441406 2.200625 3.28632812 1.53125 2.62890625 C0 1 0 1 0 0 Z " fill="#D2DAE0" transform="translate(86,117)"/>
<path d="M0 0 C6.40141012 -0.51211281 9.98010898 -0.11888494 15 4 C14.01 4.495 14.01 4.495 13 5 C11.65313898 4.36110439 10.32172742 3.6893902 9 3 C7.42841122 2.57848115 5.84370918 2.2031166 4.25 1.875 C3.45078125 1.70742187 2.6515625 1.53984375 1.828125 1.3671875 C1.22484375 1.24601562 0.6215625 1.12484375 0 1 C0 0.67 0 0.34 0 0 Z " fill="#DBE3E9" transform="translate(312,80)"/>
<path d="M0 0 C3.53586014 3.17320782 5.58578031 5.16743695 6 10 C4.68 10.99 3.36 11.98 2 13 C2.20625 12.278125 2.4125 11.55625 2.625 10.8125 C3.06559399 7.50804511 2.4085401 5.97358465 1 3 C0.67 2.01 0.34 1.02 0 0 Z " fill="#B7BFC6" transform="translate(152,66)"/>
<path d="M0 0 C0.66 1.32 1.32 2.64 2 4 C0.1875 7 0.1875 7 -2 10 C-2.99 10 -3.98 10 -5 10 C-3.66511872 6.40608886 -2.03977277 3.24509304 0 0 Z " fill="#B2BCC5" transform="translate(463,102)"/>
<path d="M0 0 C0.66 0.33 1.32 0.66 2 1 C1.45276317 4.37462715 0.9451 6.08235 -1 9 C-1.38499891 10.65549531 -1.72793135 12.3222433 -2 14 C-2.33 14 -2.66 14 -3 14 C-3.08153933 12.41753293 -3.13943557 10.83383727 -3.1875 9.25 C-3.22230469 8.36828125 -3.25710938 7.4865625 -3.29296875 6.578125 C-2.94923684 3.55328417 -1.99772541 2.24416398 0 0 Z " fill="#5C6771" transform="translate(354,95)"/>
<path d="M0 0 C-1.0725 0.4125 -2.145 0.825 -3.25 1.25 C-6.53799309 2.65154857 -8.63042894 4.27938138 -11 7 C-11.66 7.66 -12.32 8.32 -13 9 C-13.33 8.34 -13.66 7.68 -14 7 C-6.7669598 -2.50628141 -6.7669598 -2.50628141 0 0 Z " fill="#5E6871" transform="translate(203,83)"/>
<path d="M0 0 C2.97 0.495 2.97 0.495 6 1 C4.68 2.32 3.36 3.64 2 5 C0.02 4.34 -1.96 3.68 -4 3 C-2.68 2.67 -1.36 2.34 0 2 C0 1.34 0 0.68 0 0 Z " fill="#CED5DC" transform="translate(111,136)"/>
<path d="M0 0 C3.11954738 0.33724836 4.6209965 0.6209965 6.875 2.875 C7.24625 3.57625 7.6175 4.2775 8 5 C7.67 5.99 7.34 6.98 7 8 C5.83035398 6.8572081 4.66435444 5.71068285 3.5 4.5625 C2.8503125 3.92441406 2.200625 3.28632813 1.53125 2.62890625 C0 1 0 1 0 0 Z " fill="#D2DAE0" transform="translate(94,125)"/>
<path d="M0 0 C1.17755859 -0.03867188 1.17755859 -0.03867188 2.37890625 -0.078125 C3.05824219 0.03015625 3.73757813 0.1384375 4.4375 0.25 C5.0975 1.24 5.7575 2.23 6.4375 3.25 C4.66700311 3.30410687 2.89603151 3.34284119 1.125 3.375 C-0.35419922 3.40980469 -0.35419922 3.40980469 -1.86328125 3.4453125 C-4.5625 3.25 -4.5625 3.25 -7.5625 1.25 C-4.78580178 0.32443393 -2.88553105 0.05704509 0 0 Z " fill="#A8B2B9" transform="translate(315.5625,111.75)"/>
<path d="M0 0 C-0.53725895 3.37705625 -1.11064623 6.696686 -2 10 C-3.98 6.535 -3.98 6.535 -6 3 C-2.25 0 -2.25 0 0 0 Z " fill="#D6E2EB" transform="translate(215,108)"/>
<path d="M0 0 C4.00972202 3.67557852 6.45335415 7.18966896 9 12 C5.5912072 10.6015209 4.12606165 9.14993067 2.25 6 C1.82203125 5.29875 1.3940625 4.5975 0.953125 3.875 C0 2 0 2 0 0 Z " fill="#E3EBF2" transform="translate(476,99)"/>
<path d="M0 0 C4.4008703 3.82180842 5.80805531 6.47371099 7 12 C1.33064516 6.62903226 1.33064516 6.62903226 0 3 C0 2.01 0 1.02 0 0 Z " fill="#CDE2E8" transform="translate(480,97)"/>
<path d="M0 0 C0.2475 0.515625 0.495 1.03125 0.75 1.5625 C1.47784518 2.9817981 2.23437502 4.38831876 3.05859375 5.75390625 C4.09427299 7.47048188 5.05147096 9.23377351 6 11 C5.67 11.66 5.34 12.32 5 13 C-1.03938731 5.9452954 -1.03938731 5.9452954 -0.875 2 C-0.58625 1.34 -0.2975 0.68 0 0 Z " fill="#6D7881" transform="translate(479,96)"/>
<path d="M0 0 C1.65 0 3.3 0 5 0 C4.01 0.495 4.01 0.495 3 1 C2.5359375 2.175625 2.5359375 2.175625 2.0625 3.375 C1.01626291 5.95982105 0.07886465 7.2046169 -2 9 C-2.33 7.68 -2.66 6.36 -3 5 C-2.01 4.67 -1.02 4.34 0 4 C0 2.68 0 1.36 0 0 Z " fill="#B7BEC6" transform="translate(122,71)"/>
<path d="M0 0 C0.66 0 1.32 0 2 0 C2.33 0.66 2.66 1.32 3 2 C5.11846285 2.68729254 5.11846285 2.68729254 7.5625 3.125 C8.80193359 3.37636719 8.80193359 3.37636719 10.06640625 3.6328125 C10.70449219 3.75398438 11.34257812 3.87515625 12 4 C12 4.33 12 4.66 12 5 C11.41992188 4.98839844 10.83984375 4.97679688 10.2421875 4.96484375 C5.7001754 4.91237826 1.47286431 5.08248937 -3 6 C-2.67 5.34 -2.34 4.68 -2 4 C-1.01 4 -0.02 4 1 4 C0.67 2.68 0.34 1.36 0 0 Z " fill="#8B919E" transform="translate(130,65)"/>
<path d="M0 0 C4.29 0 8.58 0 13 0 C8.61017006 3.29237246 7.28011468 3.58667941 2 3 C1.34 2.01 0.68 1.02 0 0 Z " fill="#CED6DE" transform="translate(81,60)"/>
<path d="M0 0 C0.33 0 0.66 0 1 0 C1.99 3.63 2.98 7.26 4 11 C2.68 10.67 1.36 10.34 0 10 C-0.19412181 8.52168779 -0.38012131 7.04230684 -0.5625 5.5625 C-0.66691406 4.73878906 -0.77132812 3.91507812 -0.87890625 3.06640625 C-0.91886719 2.38449219 -0.95882812 1.70257813 -1 1 C-0.67 0.67 -0.34 0.34 0 0 Z " fill="#828D96" transform="translate(214,110)"/>
<path d="M0 0 C2.31 0 4.62 0 7 0 C5.25 4.875 5.25 4.875 3 6 C1 3 1 3 0 0 Z " fill="#C5D2DD" transform="translate(485,76)"/>
<path d="M0 0 C0.99 0.33 1.98 0.66 3 1 C1.35 3.64 -0.3 6.28 -2 9 C-2.66 8.67 -3.32 8.34 -4 8 C-2.87548273 5.0280615 -1.77706209 2.66559313 0 0 Z " fill="#C7D3DC" transform="translate(480,76)"/>
<path d="M0 0 C3 1 3 1 4.6875 4.0625 C5.120625 5.031875 5.55375 6.00125 6 7 C4 8 4 8 3 8 C2.01 8.495 2.01 8.495 1 9 C1.020625 8.071875 1.04125 7.14375 1.0625 6.1875 C1.15769604 2.97713989 1.15769604 2.97713989 0 0 Z " fill="#737C87" transform="translate(204,113)"/>
<path d="M0 0 C1.41377341 2.63904371 2.37240135 5.07120629 3 8 C0.5625 7.625 0.5625 7.625 -2 7 C-2.33 6.34 -2.66 5.68 -3 5 C-1.5625 2.375 -1.5625 2.375 0 0 Z " fill="#F7F8FA" transform="translate(123,95)"/>
<path d="M0 0 C2.91387197 0.2913872 3.82565583 0.79452294 5.75 3.0625 C6.1625 3.701875 6.575 4.34125 7 5 C6.01 6.485 6.01 6.485 5 8 C4.7525 7.21625 4.505 6.4325 4.25 5.625 C2.84610901 2.67682892 1.99324263 2.0975223 -1 1 C-0.67 0.67 -0.34 0.34 0 0 Z " fill="#B0BBC2" transform="translate(205,85)"/>
<path d="M0 0 C-4.455 2.97 -4.455 2.97 -9 6 C-8 2 -8 2 -6.1875 0.1875 C-4 -1 -4 -1 0 0 Z " fill="#CED9E1" transform="translate(196,79)"/>
<path d="M0 0 C1.70840281 1.63412443 2.93453047 2.86906094 4 5 C4.99 5.33 5.98 5.66 7 6 C7.33 5.34 7.66 4.68 8 4 C8.33 5.32 8.66 6.64 9 8 C6.36 7.67 3.72 7.34 1 7 C0.67 4.69 0.34 2.38 0 0 Z " fill="#B2B9C1" transform="translate(106,69)"/>
<path d="M0 0 C-1.07749442 0.82022749 -2.16229508 1.63086169 -3.25 2.4375 C-3.85328125 2.88996094 -4.4565625 3.34242187 -5.078125 3.80859375 C-7.06292756 5.03900997 -8.71987655 5.56112668 -11 6 C-8.34806708 2.26764996 -4.95872866 -2.47936433 0 0 Z " fill="#B0B9C2" transform="translate(80,62)"/>
<path d="M0 0 C0.66 0.99 1.32 1.98 2 3 C-0.46153846 6.81538462 -0.46153846 6.81538462 -3.1875 7.75 C-3.785625 7.8325 -4.38375 7.915 -5 8 C-5 5 -5 5 -2.5 2.3125 C-1.675 1.549375 -0.85 0.78625 0 0 Z " fill="#C9D3DB" transform="translate(441,92)"/>
<path d="M0 0 C4 4 4 4 4.375 7.125 C4 10 4 10 2 12 C1.34 8.04 0.68 4.08 0 0 Z " fill="#DAE5EF" transform="translate(217,86)"/>
<path d="M0 0 C0 3.39593478 -0.52165948 4.06619881 -2.5 6.6875 C-2.9640625 7.31011719 -3.428125 7.93273437 -3.90625 8.57421875 C-4.2671875 9.04472656 -4.628125 9.51523438 -5 10 C-5.99 9.67 -6.98 9.34 -8 9 C-5.36 6.03 -2.72 3.06 0 0 Z " fill="#6F7980" transform="translate(362,85)"/>
<path d="M0 0 C5.66153846 1.47692308 5.66153846 1.47692308 7.375 4.125 C7.58125 4.74375 7.7875 5.3625 8 6 C4.54074837 4.7508258 1.85306797 3.32472205 -1 1 C-0.67 0.67 -0.34 0.34 0 0 Z " fill="#CBDAE0" transform="translate(322,77)"/>
<path d="M0 0 C0.66 0 1.32 0 2 0 C0.125 4.75 0.125 4.75 -1 7 C-1.99 7 -2.98 7 -4 7 C-2.92598892 4.08482708 -2.22189824 2.22189824 0 0 Z " fill="#C4D4DD" transform="translate(469,108)"/>
<path d="M0 0 C0.99 0 1.98 0 3 0 C3.33 2.31 3.66 4.62 4 7 C2.02 5.35 0.04 3.7 -2 2 C-1.34 1.34 -0.68 0.68 0 0 Z " fill="#D5DDE2" transform="translate(78,106)"/>
<path d="M0 0 C0.99 0.33 1.98 0.66 3 1 C3 1.66 3 2.32 3 3 C3.66 3.33 4.32 3.66 5 4 C4.01 4 3.02 4 2 4 C1.67 4.66 1.34 5.32 1 6 C0.01 4.68 -0.98 3.36 -2 2 C-1.34 1.34 -0.68 0.68 0 0 Z " fill="#DFE5EA" transform="translate(70,97)"/>
<path d="M0 0 C0.33 0 0.66 0 1 0 C1 1.65 1 3.3 1 5 C0.195625 5.28875 -0.60875 5.5775 -1.4375 5.875 C-4.1326468 6.73262568 -4.1326468 6.73262568 -5 9 C-5 7.35 -5 5.7 -5 4 C-3.35 4 -1.7 4 0 4 C0 2.68 0 1.36 0 0 Z " fill="#727B87" transform="translate(143,82)"/>
<path d="M0 0 C-1.6875 1.5625 -1.6875 1.5625 -4 3 C-6.75 2.6875 -6.75 2.6875 -9 2 C-4.13793103 -1.24137931 -4.13793103 -1.24137931 0 0 Z " fill="#B9C4CF" transform="translate(327,103)"/>
<path d="M0 0 C0.33 0 0.66 0 1 0 C0.50769231 6.52307692 0.50769231 6.52307692 -2.0625 8.9375 C-2.701875 9.288125 -3.34125 9.63875 -4 10 C-4 6.42188369 -3.13534858 5.73324619 -1 3 C-0.67 2.01 -0.34 1.02 0 0 Z " fill="#67727A" transform="translate(260,101)"/>
<path d="M0 0 C0.99 0 1.98 0 3 0 C3.66 1.65 4.32 3.3 5 5 C4.34 5.66 3.68 6.32 3 7 C3 6.34 3 5.68 3 5 C2.34 5 1.68 5 1 5 C0.67 3.35 0.34 1.7 0 0 Z " fill="#B2C0C8" transform="translate(183,101)"/>
<path d="M0 0 C0.99 0 1.98 0 3 0 C5 3 5 3 4.625 5.1875 C4.41875 5.785625 4.2125 6.38375 4 7 C0 2.25 0 2.25 0 0 Z " fill="#C7D1DD" transform="translate(359,97)"/>
<path d="M0 0 C2.64 0 5.28 0 8 0 C8 0.99 8 1.98 8 3 C5.03 2.67 2.06 2.34 -1 2 C-0.67 1.34 -0.34 0.68 0 0 Z " fill="#BAC8D6" transform="translate(313,76)"/>
<path d="M0 0 C2.34058637 2.12780579 3.70700306 4.11562221 5 7 C4.34 7.66 3.68 8.32 3 9 C1.68 6.36 0.36 3.72 -1 1 C-0.67 0.67 -0.34 0.34 0 0 Z " fill="#CED9E2" transform="translate(201,110)"/>
<path d="M0 0 C0.33 0 0.66 0 1 0 C3.14285714 7.42857143 3.14285714 7.42857143 4 11 C3.01 11.495 3.01 11.495 2 12 C0.00214565 7.8794254 -0.17835515 4.54805635 0 0 Z " fill="#CDD4DA" transform="translate(301,92)"/>
<path d="M0 0 C2.64 0 5.28 0 8 0 C8 0.66 8 1.32 8 2 C6.02 2 4.04 2 2 2 C1.67 2.66 1.34 3.32 1 4 C0.67 2.68 0.34 1.36 0 0 Z " fill="#EAF2F8" transform="translate(424,80)"/>
<path d="M0 0 C0.66 0 1.32 0 2 0 C2.33 1.32 2.66 2.64 3 4 C2.01 4 1.02 4 0 4 C0 4.66 0 5.32 0 6 C-0.66 6 -1.32 6 -2 6 C-1.49396008 3.83125748 -1.00016187 2.00032373 0 0 Z " fill="#DDE6EC" transform="translate(473,101)"/>
<path d="M0 0 C0.66 0.99 1.32 1.98 2 3 C0.71937515 4.7074998 -0.61767557 6.37373596 -2 8 C-2.66 8 -3.32 8 -4 8 C-2.66666667 5.33333333 -1.33333333 2.66666667 0 0 Z " fill="#6F7981" transform="translate(212,99)"/>
<path d="M0 0 C0.66 0 1.32 0 2 0 C1.40072174 3.35595828 0.15377564 5.37801226 -2 8 C-2 7.34 -2 6.68 -2 6 C-2.66 5.67 -3.32 5.34 -4 5 C-3.525625 4.54625 -3.05125 4.0925 -2.5625 3.625 C-0.90972192 2.06741796 -0.90972192 2.06741796 0 0 Z " fill="#D5DEE2" transform="translate(475,84)"/>
</svg>
